<svg xmlns="http://www.w3.org/2000/svg" viewBox="0 0 864.5 29"><defs><style>.cls-1{fill:none;stroke:#000;stroke-miterlimit:10;stroke-width:1px;}</style></defs><title>Asset 1</title><g id="Layer_2" data-name="Layer 2"><g id="Layer_1-2" data-name="Layer 1"><line class="cls-1" x1="792" y1="0.5" x2="864" y2="0.5"/><line class="cls-1" x1="846" y1="0.5" x2="850.5" y2="0.5"/><line class="cls-1" x1="850.5" y1="0.5" x2="855" y2="0.5"/><line class="cls-1" x1="850.5" y1="4.35" x2="850.5"/><line class="cls-1" x1="859.5" y1="4.35" x2="859.5"/><line class="cls-1" x1="855" y1="9" x2="855"/><line class="cls-1" x1="864" y1="29" x2="864"/><line class="cls-1" x1="855" y1="0.5" x2="859.5" y2="0.5"/><line class="cls-1" x1="859.5" y1="0.5" x2="864" y2="0.5"/><line class="cls-1" x1="828" y1="0.5" x2="832.5" y2="0.5"/><line class="cls-1" x1="832.5" y1="0.5" x2="837" y2="0.5"/><line class="cls-1" x1="832.5" y1="4.35" x2="832.5"/><line class="cls-1" x1="841.5" y1="4.35" x2="841.5"/><line class="cls-1" x1="837" y1="9" x2="837"/><line class="cls-1" x1="846" y1="18" x2="846"/><line class="cls-1" x1="837" y1="0.5" x2="841.5" y2="0.5"/><line class="cls-1" x1="841.5" y1="0.5" x2="846" y2="0.5"/><line class="cls-1" x1="810" y1="0.5" x2="814.5" y2="0.5"/><line class="cls-1" x1="814.5" y1="0.5" x2="819" y2="0.5"/><line class="cls-1" x1="814.5" y1="4.35" x2="814.5"/><line class="cls-1" x1="823.5" y1="4.35" x2="823.5"/><line class="cls-1" x1="819" y1="9" x2="819"/><line class="cls-1" x1="828" y1="18" x2="828"/><line class="cls-1" x1="819" y1="0.5" x2="823.5" y2="0.5"/><line class="cls-1" x1="823.5" y1="0.5" x2="828" y2="0.5"/><line class="cls-1" x1="792" y1="0.5" x2="796.5" y2="0.5"/><line class="cls-1" x1="796.5" y1="0.5" x2="801" y2="0.5"/><line class="cls-1" x1="796.5" y1="4.35" x2="796.5"/><line class="cls-1" x1="805.5" y1="4.35" x2="805.5"/><line class="cls-1" x1="801" y1="9" x2="801"/><line class="cls-1" x1="810" y1="18" x2="810"/><line class="cls-1" x1="801" y1="0.5" x2="805.5" y2="0.5"/><line class="cls-1" x1="805.5" y1="0.5" x2="810" y2="0.5"/><line class="cls-1" x1="720" y1="0.5" x2="792" y2="0.5"/><line class="cls-1" x1="774" y1="0.5" x2="778.5" y2="0.5"/><line class="cls-1" x1="778.5" y1="0.5" x2="783" y2="0.5"/><line class="cls-1" x1="778.5" y1="4.35" x2="778.5"/><line class="cls-1" x1="787.5" y1="4.35" x2="787.5"/><line class="cls-1" x1="783" y1="9" x2="783"/><line class="cls-1" x1="792" y1="29" x2="792"/><line class="cls-1" x1="783" y1="0.5" x2="787.5" y2="0.5"/><line class="cls-1" x1="787.5" y1="0.5" x2="792" y2="0.5"/><line class="cls-1" x1="756" y1="0.5" x2="760.5" y2="0.5"/><line class="cls-1" x1="760.5" y1="0.5" x2="765" y2="0.5"/><line class="cls-1" x1="760.5" y1="4.35" x2="760.5"/><line class="cls-1" x1="769.5" y1="4.35" x2="769.5"/><line class="cls-1" x1="765" y1="9" x2="765"/><line class="cls-1" x1="774" y1="18" x2="774"/><line class="cls-1" x1="765" y1="0.5" x2="769.5" y2="0.5"/><line class="cls-1" x1="769.5" y1="0.5" x2="774" y2="0.5"/><line class="cls-1" x1="738" y1="0.5" x2="742.5" y2="0.5"/><line class="cls-1" x1="742.5" y1="0.5" x2="747" y2="0.5"/><line class="cls-1" x1="742.5" y1="4.35" x2="742.5"/><line class="cls-1" x1="751.5" y1="4.35" x2="751.5"/><line class="cls-1" x1="747" y1="9" x2="747"/><line class="cls-1" x1="756" y1="18" x2="756"/><line class="cls-1" x1="747" y1="0.5" x2="751.5" y2="0.5"/><line class="cls-1" x1="751.5" y1="0.5" x2="756" y2="0.5"/><line class="cls-1" x1="720" y1="0.5" x2="724.5" y2="0.5"/><line class="cls-1" x1="724.5" y1="0.5" x2="729" y2="0.5"/><line class="cls-1" x1="724.5" y1="4.35" x2="724.5"/><line class="cls-1" x1="733.5" y1="4.35" x2="733.5"/><line class="cls-1" x1="729" y1="9" x2="729"/><line class="cls-1" x1="738" y1="18" x2="738"/><line class="cls-1" x1="729" y1="0.5" x2="733.5" y2="0.5"/><line class="cls-1" x1="733.5" y1="0.5" x2="738" y2="0.5"/><line class="cls-1" x1="648" y1="0.5" x2="720" y2="0.5"/><line class="cls-1" x1="702" y1="0.5" x2="706.5" y2="0.5"/><line class="cls-1" x1="706.5" y1="0.5" x2="711" y2="0.5"/><line class="cls-1" x1="706.5" y1="4.35" x2="706.5"/><line class="cls-1" x1="715.5" y1="4.35" x2="715.5"/><line class="cls-1" x1="711" y1="9" x2="711"/><line class="cls-1" x1="720" y1="29" x2="720"/><line class="cls-1" x1="711" y1="0.5" x2="715.5" y2="0.5"/><line class="cls-1" x1="715.5" y1="0.5" x2="720" y2="0.5"/><line class="cls-1" x1="684" y1="0.5" x2="688.5" y2="0.5"/><line class="cls-1" x1="688.5" y1="0.5" x2="693" y2="0.5"/><line class="cls-1" x1="688.5" y1="4.35" x2="688.5"/><line class="cls-1" x1="697.5" y1="4.35" x2="697.5"/><line class="cls-1" x1="693" y1="9" x2="693"/><line class="cls-1" x1="702" y1="18" x2="702"/><line class="cls-1" x1="693" y1="0.5" x2="697.5" y2="0.5"/><line class="cls-1" x1="697.5" y1="0.5" x2="702" y2="0.5"/><line class="cls-1" x1="666" y1="0.5" x2="670.5" y2="0.5"/><line class="cls-1" x1="670.5" y1="0.5" x2="675" y2="0.5"/><line class="cls-1" x1="670.5" y1="4.35" x2="670.5"/><line class="cls-1" x1="679.5" y1="4.35" x2="679.5"/><line class="cls-1" x1="675" y1="9" x2="675"/><line class="cls-1" x1="684" y1="18" x2="684"/><line class="cls-1" x1="675" y1="0.5" x2="679.5" y2="0.5"/><line class="cls-1" x1="679.5" y1="0.5" x2="684" y2="0.5"/><line class="cls-1" x1="648" y1="0.5" x2="652.5" y2="0.5"/><line class="cls-1" x1="652.5" y1="0.5" x2="657" y2="0.5"/><line class="cls-1" x1="652.5" y1="4.35" x2="652.5"/><line class="cls-1" x1="661.5" y1="4.35" x2="661.5"/><line class="cls-1" x1="657" y1="9" x2="657"/><line class="cls-1" x1="666" y1="18" x2="666"/><line class="cls-1" x1="657" y1="0.5" x2="661.5" y2="0.5"/><line class="cls-1" x1="661.5" y1="0.5" x2="666" y2="0.5"/><line class="cls-1" x1="576" y1="0.5" x2="648" y2="0.5"/><line class="cls-1" x1="630" y1="0.5" x2="634.5" y2="0.5"/><line class="cls-1" x1="634.5" y1="0.5" x2="639" y2="0.5"/><line class="cls-1" x1="634.5" y1="4.35" x2="634.5"/><line class="cls-1" x1="643.5" y1="4.35" x2="643.5"/><line class="cls-1" x1="639" y1="9" x2="639"/><line class="cls-1" x1="648" y1="29" x2="648"/><line class="cls-1" x1="639" y1="0.5" x2="643.5" y2="0.5"/><line class="cls-1" x1="643.5" y1="0.5" x2="648" y2="0.5"/><line class="cls-1" x1="612" y1="0.5" x2="616.5" y2="0.5"/><line class="cls-1" x1="616.5" y1="0.5" x2="621" y2="0.5"/><line class="cls-1" x1="616.5" y1="4.35" x2="616.5"/><line class="cls-1" x1="625.5" y1="4.35" x2="625.5"/><line class="cls-1" x1="621" y1="9" x2="621"/><line class="cls-1" x1="630" y1="18" x2="630"/><line class="cls-1" x1="621" y1="0.5" x2="625.5" y2="0.5"/><line class="cls-1" x1="625.5" y1="0.5" x2="630" y2="0.5"/><line class="cls-1" x1="594" y1="0.5" x2="598.5" y2="0.5"/><line class="cls-1" x1="598.5" y1="0.5" x2="603" y2="0.5"/><line class="cls-1" x1="598.5" y1="4.35" x2="598.5"/><line class="cls-1" x1="607.5" y1="4.35" x2="607.5"/><line class="cls-1" x1="603" y1="9" x2="603"/><line class="cls-1" x1="612" y1="18" x2="612"/><line class="cls-1" x1="603" y1="0.5" x2="607.5" y2="0.5"/><line class="cls-1" x1="607.5" y1="0.5" x2="612" y2="0.5"/><line class="cls-1" x1="576" y1="0.5" x2="580.5" y2="0.5"/><line class="cls-1" x1="580.5" y1="0.5" x2="585" y2="0.5"/><line class="cls-1" x1="580.5" y1="4.35" x2="580.5"/><line class="cls-1" x1="589.5" y1="4.35" x2="589.5"/><line class="cls-1" x1="585" y1="9" x2="585"/><line class="cls-1" x1="594" y1="18" x2="594"/><line class="cls-1" x1="585" y1="0.5" x2="589.5" y2="0.5"/><line class="cls-1" x1="589.5" y1="0.5" x2="594" y2="0.5"/><line class="cls-1" x1="504" y1="0.5" x2="576" y2="0.5"/><line class="cls-1" x1="558" y1="0.5" x2="562.5" y2="0.5"/><line class="cls-1" x1="562.5" y1="0.5" x2="567" y2="0.5"/><line class="cls-1" x1="562.5" y1="4.35" x2="562.5"/><line class="cls-1" x1="571.5" y1="4.35" x2="571.5"/><line class="cls-1" x1="567" y1="9" x2="567"/><line class="cls-1" x1="576" y1="29" x2="576"/><line class="cls-1" x1="567" y1="0.5" x2="571.5" y2="0.5"/><line class="cls-1" x1="571.5" y1="0.5" x2="576" y2="0.5"/><line class="cls-1" x1="540" y1="0.5" x2="544.5" y2="0.5"/><line class="cls-1" x1="544.5" y1="0.5" x2="549" y2="0.5"/><line class="cls-1" x1="544.5" y1="4.35" x2="544.5"/><line class="cls-1" x1="553.5" y1="4.35" x2="553.5"/><line class="cls-1" x1="549" y1="9" x2="549"/><line class="cls-1" x1="558" y1="18" x2="558"/><line class="cls-1" x1="549" y1="0.5" x2="553.5" y2="0.5"/><line class="cls-1" x1="553.5" y1="0.5" x2="558" y2="0.5"/><line class="cls-1" x1="522" y1="0.5" x2="526.5" y2="0.5"/><line class="cls-1" x1="526.5" y1="0.5" x2="531" y2="0.5"/><line class="cls-1" x1="526.5" y1="4.35" x2="526.5"/><line class="cls-1" x1="535.5" y1="4.35" x2="535.5"/><line class="cls-1" x1="531" y1="9" x2="531"/><line class="cls-1" x1="540" y1="18" x2="540"/><line class="cls-1" x1="531" y1="0.5" x2="535.5" y2="0.5"/><line class="cls-1" x1="535.5" y1="0.5" x2="540" y2="0.5"/><line class="cls-1" x1="504" y1="0.5" x2="508.5" y2="0.5"/><line class="cls-1" x1="508.5" y1="0.5" x2="513" y2="0.5"/><line class="cls-1" x1="508.5" y1="4.35" x2="508.5"/><line class="cls-1" x1="517.5" y1="4.35" x2="517.5"/><line class="cls-1" x1="513" y1="9" x2="513"/><line class="cls-1" x1="522" y1="18" x2="522"/><line class="cls-1" x1="513" y1="0.5" x2="517.5" y2="0.5"/><line class="cls-1" x1="517.5" y1="0.5" x2="522" y2="0.5"/><line class="cls-1" x1="432" y1="0.5" x2="504" y2="0.5"/><line class="cls-1" x1="486" y1="0.5" x2="490.5" y2="0.5"/><line class="cls-1" x1="490.5" y1="0.5" x2="495" y2="0.5"/><line class="cls-1" x1="490.5" y1="4.35" x2="490.5"/><line class="cls-1" x1="499.5" y1="4.35" x2="499.5"/><line class="cls-1" x1="495" y1="9" x2="495"/><line class="cls-1" x1="504" y1="29" x2="504"/><line class="cls-1" x1="495" y1="0.5" x2="499.5" y2="0.5"/><line class="cls-1" x1="499.5" y1="0.5" x2="504" y2="0.5"/><line class="cls-1" x1="468" y1="0.5" x2="472.5" y2="0.5"/><line class="cls-1" x1="472.5" y1="0.5" x2="477" y2="0.5"/><line class="cls-1" x1="472.5" y1="4.35" x2="472.5"/><line class="cls-1" x1="481.5" y1="4.35" x2="481.5"/><line class="cls-1" x1="477" y1="9" x2="477"/><line class="cls-1" x1="486" y1="18" x2="486"/><line class="cls-1" x1="477" y1="0.5" x2="481.5" y2="0.5"/><line class="cls-1" x1="481.5" y1="0.5" x2="486" y2="0.5"/><line class="cls-1" x1="450" y1="0.5" x2="454.5" y2="0.5"/><line class="cls-1" x1="454.5" y1="0.5" x2="459" y2="0.5"/><line class="cls-1" x1="454.5" y1="4.35" x2="454.5"/><line class="cls-1" x1="463.5" y1="4.35" x2="463.5"/><line class="cls-1" x1="459" y1="9" x2="459"/><line class="cls-1" x1="468" y1="18" x2="468"/><line class="cls-1" x1="459" y1="0.5" x2="463.5" y2="0.5"/><line class="cls-1" x1="463.5" y1="0.5" x2="468" y2="0.5"/><line class="cls-1" x1="432" y1="0.5" x2="436.5" y2="0.5"/><line class="cls-1" x1="436.5" y1="0.5" x2="441" y2="0.5"/><line class="cls-1" x1="436.5" y1="4.35" x2="436.5"/><line class="cls-1" x1="445.5" y1="4.35" x2="445.5"/><line class="cls-1" x1="441" y1="9" x2="441"/><line class="cls-1" x1="450" y1="18" x2="450"/><line class="cls-1" x1="441" y1="0.5" x2="445.5" y2="0.5"/><line class="cls-1" x1="445.5" y1="0.5" x2="450" y2="0.5"/><line class="cls-1" x1="360" y1="0.5" x2="432" y2="0.5"/><line class="cls-1" x1="414" y1="0.5" x2="418.5" y2="0.5"/><line class="cls-1" x1="418.5" y1="0.5" x2="423" y2="0.5"/><line class="cls-1" x1="418.5" y1="4.35" x2="418.5"/><line class="cls-1" x1="427.5" y1="4.35" x2="427.5"/><line class="cls-1" x1="423" y1="9" x2="423"/><line class="cls-1" x1="432" y1="29" x2="432"/><line class="cls-1" x1="423" y1="0.5" x2="427.5" y2="0.5"/><line class="cls-1" x1="427.5" y1="0.5" x2="432" y2="0.5"/><line class="cls-1" x1="396" y1="0.5" x2="400.5" y2="0.5"/><line class="cls-1" x1="400.5" y1="0.5" x2="405" y2="0.5"/><line class="cls-1" x1="400.5" y1="4.35" x2="400.5"/><line class="cls-1" x1="409.5" y1="4.35" x2="409.5"/><line class="cls-1" x1="405" y1="9" x2="405"/><line class="cls-1" x1="414" y1="18" x2="414"/><line class="cls-1" x1="405" y1="0.5" x2="409.5" y2="0.5"/><line class="cls-1" x1="409.5" y1="0.5" x2="414" y2="0.5"/><line class="cls-1" x1="378" y1="0.5" x2="382.5" y2="0.5"/><line class="cls-1" x1="382.5" y1="0.5" x2="387" y2="0.5"/><line class="cls-1" x1="382.5" y1="4.35" x2="382.5"/><line class="cls-1" x1="391.5" y1="4.35" x2="391.5"/><line class="cls-1" x1="387" y1="9" x2="387"/><line class="cls-1" x1="396" y1="18" x2="396"/><line class="cls-1" x1="387" y1="0.5" x2="391.5" y2="0.5"/><line class="cls-1" x1="391.5" y1="0.5" x2="396" y2="0.5"/><line class="cls-1" x1="360" y1="0.5" x2="364.5" y2="0.5"/><line class="cls-1" x1="364.5" y1="0.5" x2="369" y2="0.5"/><line class="cls-1" x1="364.5" y1="4.35" x2="364.5"/><line class="cls-1" x1="373.5" y1="4.35" x2="373.5"/><line class="cls-1" x1="369" y1="9" x2="369"/><line class="cls-1" x1="378" y1="18" x2="378"/><line class="cls-1" x1="369" y1="0.5" x2="373.5" y2="0.5"/><line class="cls-1" x1="373.5" y1="0.5" x2="378" y2="0.5"/><line class="cls-1" x1="288" y1="0.5" x2="360" y2="0.5"/><line class="cls-1" x1="342" y1="0.5" x2="346.5" y2="0.5"/><line class="cls-1" x1="346.5" y1="0.5" x2="351" y2="0.5"/><line class="cls-1" x1="346.5" y1="4.35" x2="346.5"/><line class="cls-1" x1="355.5" y1="4.35" x2="355.5"/><line class="cls-1" x1="351" y1="9" x2="351"/><line class="cls-1" x1="360" y1="29" x2="360"/><line class="cls-1" x1="351" y1="0.5" x2="355.5" y2="0.5"/><line class="cls-1" x1="355.5" y1="0.5" x2="360" y2="0.5"/><line class="cls-1" x1="324" y1="0.5" x2="328.5" y2="0.5"/><line class="cls-1" x1="328.5" y1="0.5" x2="333" y2="0.5"/><line class="cls-1" x1="328.5" y1="4.35" x2="328.5"/><line class="cls-1" x1="337.5" y1="4.35" x2="337.5"/><line class="cls-1" x1="333" y1="9" x2="333"/><line class="cls-1" x1="342" y1="18" x2="342"/><line class="cls-1" x1="333" y1="0.5" x2="337.5" y2="0.5"/><line class="cls-1" x1="337.5" y1="0.5" x2="342" y2="0.5"/><line class="cls-1" x1="306" y1="0.5" x2="310.5" y2="0.5"/><line class="cls-1" x1="310.5" y1="0.5" x2="315" y2="0.5"/><line class="cls-1" x1="310.5" y1="4.35" x2="310.5"/><line class="cls-1" x1="319.5" y1="4.35" x2="319.5"/><line class="cls-1" x1="315" y1="9" x2="315"/><line class="cls-1" x1="324" y1="18" x2="324"/><line class="cls-1" x1="315" y1="0.5" x2="319.5" y2="0.5"/><line class="cls-1" x1="319.5" y1="0.5" x2="324" y2="0.5"/><line class="cls-1" x1="288" y1="0.5" x2="292.5" y2="0.5"/><line class="cls-1" x1="292.5" y1="0.5" x2="297" y2="0.5"/><line class="cls-1" x1="292.5" y1="4.35" x2="292.5"/><line class="cls-1" x1="301.5" y1="4.35" x2="301.5"/><line class="cls-1" x1="297" y1="9" x2="297"/><line class="cls-1" x1="306" y1="18" x2="306"/><line class="cls-1" x1="297" y1="0.5" x2="301.5" y2="0.5"/><line class="cls-1" x1="301.5" y1="0.5" x2="306" y2="0.5"/><line class="cls-1" x1="216" y1="0.5" x2="288" y2="0.5"/><line class="cls-1" x1="270" y1="0.5" x2="274.5" y2="0.5"/><line class="cls-1" x1="274.5" y1="0.5" x2="279" y2="0.5"/><line class="cls-1" x1="274.5" y1="4.35" x2="274.5"/><line class="cls-1" x1="283.5" y1="4.35" x2="283.5"/><line class="cls-1" x1="279" y1="9" x2="279"/><line class="cls-1" x1="288" y1="29" x2="288"/><line class="cls-1" x1="279" y1="0.5" x2="283.5" y2="0.5"/><line class="cls-1" x1="283.5" y1="0.5" x2="288" y2="0.5"/><line class="cls-1" x1="252" y1="0.5" x2="256.5" y2="0.5"/><line class="cls-1" x1="256.5" y1="0.5" x2="261" y2="0.5"/><line class="cls-1" x1="256.5" y1="4.35" x2="256.5"/><line class="cls-1" x1="265.5" y1="4.35" x2="265.5"/><line class="cls-1" x1="261" y1="9" x2="261"/><line class="cls-1" x1="270" y1="18" x2="270"/><line class="cls-1" x1="261" y1="0.5" x2="265.5" y2="0.5"/><line class="cls-1" x1="265.5" y1="0.5" x2="270" y2="0.5"/><line class="cls-1" x1="234" y1="0.5" x2="238.5" y2="0.5"/><line class="cls-1" x1="238.5" y1="0.5" x2="243" y2="0.5"/><line class="cls-1" x1="238.5" y1="4.35" x2="238.5"/><line class="cls-1" x1="247.5" y1="4.35" x2="247.5"/><line class="cls-1" x1="243" y1="9" x2="243"/><line class="cls-1" x1="252" y1="18" x2="252"/><line class="cls-1" x1="243" y1="0.5" x2="247.5" y2="0.5"/><line class="cls-1" x1="247.5" y1="0.5" x2="252" y2="0.5"/><line class="cls-1" x1="216" y1="0.5" x2="220.5" y2="0.5"/><line class="cls-1" x1="220.5" y1="0.5" x2="225" y2="0.5"/><line class="cls-1" x1="220.5" y1="4.35" x2="220.5"/><line class="cls-1" x1="229.5" y1="4.35" x2="229.5"/><line class="cls-1" x1="225" y1="9" x2="225"/><line class="cls-1" x1="234" y1="18" x2="234"/><line class="cls-1" x1="225" y1="0.5" x2="229.5" y2="0.5"/><line class="cls-1" x1="229.5" y1="0.5" x2="234" y2="0.5"/><line class="cls-1" x1="144" y1="0.5" x2="216" y2="0.5"/><line class="cls-1" x1="198" y1="0.5" x2="202.5" y2="0.5"/><line class="cls-1" x1="202.5" y1="0.5" x2="207" y2="0.5"/><line class="cls-1" x1="202.5" y1="4.35" x2="202.5"/><line class="cls-1" x1="211.5" y1="4.35" x2="211.5"/><line class="cls-1" x1="207" y1="9" x2="207"/><line class="cls-1" x1="216" y1="29" x2="216"/><line class="cls-1" x1="207" y1="0.5" x2="211.5" y2="0.5"/><line class="cls-1" x1="211.5" y1="0.5" x2="216" y2="0.5"/><line class="cls-1" x1="180" y1="0.5" x2="184.5" y2="0.5"/><line class="cls-1" x1="184.5" y1="0.5" x2="189" y2="0.5"/><line class="cls-1" x1="184.5" y1="4.35" x2="184.5"/><line class="cls-1" x1="193.5" y1="4.35" x2="193.5"/><line class="cls-1" x1="189" y1="9" x2="189"/><line class="cls-1" x1="198" y1="18" x2="198"/><line class="cls-1" x1="189" y1="0.5" x2="193.5" y2="0.5"/><line class="cls-1" x1="193.5" y1="0.5" x2="198" y2="0.5"/><line class="cls-1" x1="162" y1="0.5" x2="166.5" y2="0.5"/><line class="cls-1" x1="166.5" y1="0.5" x2="171" y2="0.5"/><line class="cls-1" x1="166.5" y1="4.35" x2="166.5"/><line class="cls-1" x1="175.5" y1="4.35" x2="175.5"/><line class="cls-1" x1="171" y1="9" x2="171"/><line class="cls-1" x1="180" y1="18" x2="180"/><line class="cls-1" x1="171" y1="0.5" x2="175.5" y2="0.5"/><line class="cls-1" x1="175.5" y1="0.5" x2="180" y2="0.5"/><line class="cls-1" x1="144" y1="0.5" x2="148.5" y2="0.5"/><line class="cls-1" x1="148.5" y1="0.5" x2="153" y2="0.5"/><line class="cls-1" x1="148.5" y1="4.35" x2="148.5"/><line class="cls-1" x1="157.5" y1="4.35" x2="157.5"/><line class="cls-1" x1="153" y1="9" x2="153"/><line class="cls-1" x1="162" y1="18" x2="162"/><line class="cls-1" x1="153" y1="0.5" x2="157.5" y2="0.5"/><line class="cls-1" x1="157.5" y1="0.5" x2="162" y2="0.5"/><line class="cls-1" x1="72" y1="0.5" x2="144" y2="0.5"/><line class="cls-1" x1="126" y1="0.5" x2="130.5" y2="0.5"/><line class="cls-1" x1="130.5" y1="0.5" x2="135" y2="0.5"/><line class="cls-1" x1="130.5" y1="4.35" x2="130.5"/><line class="cls-1" x1="139.5" y1="4.35" x2="139.5"/><line class="cls-1" x1="135" y1="9" x2="135"/><line class="cls-1" x1="144" y1="29" x2="144"/><line class="cls-1" x1="135" y1="0.5" x2="139.5" y2="0.5"/><line class="cls-1" x1="139.5" y1="0.5" x2="144" y2="0.5"/><line class="cls-1" x1="108" y1="0.5" x2="112.5" y2="0.5"/><line class="cls-1" x1="112.5" y1="0.5" x2="117" y2="0.5"/><line class="cls-1" x1="112.5" y1="4.35" x2="112.5"/><line class="cls-1" x1="121.5" y1="4.35" x2="121.5"/><line class="cls-1" x1="117" y1="9" x2="117"/><line class="cls-1" x1="126" y1="18" x2="126"/><line class="cls-1" x1="117" y1="0.5" x2="121.5" y2="0.5"/><line class="cls-1" x1="121.5" y1="0.5" x2="126" y2="0.5"/><line class="cls-1" x1="90" y1="0.5" x2="94.5" y2="0.5"/><line class="cls-1" x1="94.5" y1="0.5" x2="99" y2="0.5"/><line class="cls-1" x1="94.5" y1="4.35" x2="94.5"/><line class="cls-1" x1="103.5" y1="4.35" x2="103.5"/><line class="cls-1" x1="99" y1="9" x2="99"/><line class="cls-1" x1="108" y1="18" x2="108"/><line class="cls-1" x1="99" y1="0.5" x2="103.5" y2="0.5"/><line class="cls-1" x1="103.5" y1="0.5" x2="108" y2="0.5"/><line class="cls-1" x1="72" y1="0.5" x2="76.5" y2="0.5"/><line class="cls-1" x1="76.5" y1="0.5" x2="81" y2="0.5"/><line class="cls-1" x1="76.5" y1="4.35" x2="76.5"/><line class="cls-1" x1="85.5" y1="4.35" x2="85.5"/><line class="cls-1" x1="81" y1="9" x2="81"/><line class="cls-1" x1="90" y1="18" x2="90"/><line class="cls-1" x1="81" y1="0.5" x2="85.5" y2="0.5"/><line class="cls-1" x1="85.5" y1="0.5" x2="90" y2="0.5"/><line class="cls-1" y1="0.5" x2="72" y2="0.5"/><line class="cls-1" x1="54" y1="0.5" x2="58.5" y2="0.5"/><line class="cls-1" x1="58.5" y1="0.5" x2="63" y2="0.5"/><line class="cls-1" x1="58.5" y1="4.35" x2="58.5"/><line class="cls-1" x1="67.5" y1="4.35" x2="67.5"/><line class="cls-1" x1="63" y1="9" x2="63"/><line class="cls-1" x1="72" y1="29" x2="72"/><line class="cls-1" x1="63" y1="0.5" x2="67.5" y2="0.5"/><line class="cls-1" x1="67.5" y1="0.5" x2="72" y2="0.5"/><line class="cls-1" x1="36" y1="0.5" x2="40.5" y2="0.5"/><line class="cls-1" x1="40.5" y1="0.5" x2="45" y2="0.5"/><line class="cls-1" x1="40.5" y1="4.35" x2="40.5"/><line class="cls-1" x1="49.5" y1="4.35" x2="49.5"/><line class="cls-1" x1="45" y1="9" x2="45"/><line class="cls-1" x1="54" y1="18" x2="54"/><line class="cls-1" x1="45" y1="0.5" x2="49.5" y2="0.5"/><line class="cls-1" x1="49.5" y1="0.5" x2="54" y2="0.5"/><line class="cls-1" x1="18" y1="0.5" x2="22.5" y2="0.5"/><line class="cls-1" x1="22.5" y1="0.5" x2="27" y2="0.5"/><line class="cls-1" x1="22.5" y1="4.35" x2="22.5"/><line class="cls-1" x1="31.5" y1="4.35" x2="31.5"/><line class="cls-1" x1="27" y1="9" x2="27"/><line class="cls-1" x1="36" y1="18" x2="36"/><line class="cls-1" x1="27" y1="0.5" x2="31.5" y2="0.5"/><line class="cls-1" x1="31.5" y1="0.5" x2="36" y2="0.5"/><line class="cls-1" y1="0.5" x2="4.5" y2="0.5"/><line class="cls-1" x1="4.5" y1="0.5" x2="9" y2="0.5"/><line class="cls-1" x1="4.5" y1="4.35" x2="4.5"/><line class="cls-1" x1="13.5" y1="4.35" x2="13.5"/><line class="cls-1" x1="9" y1="9" x2="9"/><line class="cls-1" x1="18" y1="18" x2="18"/><line class="cls-1" x1="9" y1="0.5" x2="13.5" y2="0.5"/><line class="cls-1" x1="13.5" y1="0.5" x2="18" y2="0.5"/></g></g></svg>