<svg xmlns="http://www.w3.org/2000/svg" viewBox="0 0 301.98633 242.21729">
    <defs>
        <style>
            .a{fill:#fff;}.b{fill:#d7a03c;} svg { background:black; }
        </style>
    </defs>
    <path id="txt_established" d="M129.38226,240.7579v1.3788H124.2341v-6.98941h5.04v1.38938h-3.4809V237.977h3.13089v1.33h-3.13089v1.4509Zm4.64127-4.40149a.94248.94248,0,0,0-.6152.18664.60017.60017,0,0,0-.2248.49.55066.55066,0,0,0,.27359.48365,4.99238,4.99238,0,0,0,1.27066.42636,3.5786,3.5786,0,0,1,1.54633.73393,1.82155,1.82155,0,0,1,.54947,1.42972,1.88533,1.88533,0,0,1-.70645,1.52514,2.8055,2.8055,0,0,1-1.85392.58545,4.291,4.291,0,0,1-2.99093-1.2303l.93124-1.1391a3.30355,3.30355,0,0,0,2.08939.9885,1.09813,1.09813,0,0,0,.67456-.18456.593.593,0,0,0,.24606-.50059.58178.58178,0,0,0-.26095-.49851,3.40871,3.40871,0,0,0-1.02878-.37544,4.48282,4.48282,0,0,1-1.786-.75514,1.78349,1.78349,0,0,1-.56421-1.45941,1.80945,1.80945,0,0,1,.71475-1.53576,2.87224,2.87224,0,0,1,1.78391-.53878,4.26081,4.26081,0,0,1,1.4.23968,3.76187,3.76187,0,0,1,1.22183.67882l-.79117,1.14117a3.07563,3.07563,0,0,0-1.87939-.69146Zm8.02875.14v5.64031h-1.559v-5.64031H138.512v-1.3491h5.52152v1.3491Zm4.78552,5.46637a.89417.89417,0,1,1,.25442-.62579.84979.84979,0,0,1-.25442.62579Zm10.96445.17394h-4.92966v-1.16031l2.05118-2.1a9.26506,9.26506,0,0,0,.88458-1.00334,1.26952,1.26952,0,0,0,.26523-.72545.7995.7995,0,0,0-.23133-.58545.78786.78786,0,0,0-.58966-.23546c-.43908,0-.857.31395-1.24936.93972l-1.24948-.73819a3.881,3.881,0,0,1,1.0734-1.15181,2.64478,2.64478,0,0,1,1.49121-.3882,2.39319,2.39319,0,0,1,1.58878.57484,1.92632,1.92632,0,0,1,.68508,1.56334,2.10608,2.10608,0,0,1-.27352,1.03516,6.76108,6.76108,0,0,1-1.01612,1.26635l-1.26,1.30881h2.75968v1.4Zm7.16128-.90368a2.88417,2.88417,0,0,1-4.34,0,5.15635,5.15635,0,0,1,0-5.26059,2.88425,2.88425,0,0,1,4.34,0,5.17029,5.17029,0,0,1,0,5.26059Zm-1.14126-4.31663a1.14982,1.14982,0,0,0-2.05973,0,4.51124,4.51124,0,0,0,0,3.38121,1.14815,1.14815,0,0,0,2.05973,0,4.48344,4.48344,0,0,0,0-3.38121Zm5.06127,5.22031v-5.6594h-1.33v-1.33h2.82965v6.98941Zm5.68906-4.46941a2.57183,2.57183,0,0,1,.71063-.08911,2.62072,2.62072,0,0,1,1.73938.60881,2.036,2.036,0,0,1,.72962,1.64606,2.18892,2.18892,0,0,1-.7551,1.7097,2.69445,2.69445,0,0,1-1.86453.67454,3.06214,3.06214,0,0,1-2.36942-1.05l.81885-1.1391c.06149.0594.14.1315.23966.21851a3.46137,3.46137,0,0,0,.55154.34573,1.65757,1.65757,0,0,0,.79965.21425,1.124,1.124,0,0,0,.71066-.23969.84424.84424,0,0,0,.3097-.7106.8575.8575,0,0,0-.33524-.72336,1.39376,1.39376,0,0,0-.86542-.25665,2.64745,2.64745,0,0,0-1.23031.38181l-.649-.7v-3.4109h4.219v1.3491H174.5726v1.1709Z" class="a"/>
    <path id="txt_deepnorth" d="M11.89575,200.33269H.0658v-1.62486H2.276V155.54754H0v-1.627H11.89575c7.34577,0,12.93512,8.1264,12.93512,22.49124,0,16.25061-2.73,23.92091-12.93512,23.92091Zm5.78665-26.39c0-6.17485-.97577-18.39515-5.85031-18.39515H8.77545v43.16029h3.05664c5.78455,0,5.85031-14.88454,5.85031-21.64484v-3.1203ZM54.6,185.18725v15.14544H33.99457v-1.62486h2.2102V155.6112h-2.2102v-1.62485H54.6v11.70059h-2.0788v-3.76941c0-4.096-3.57642-6.30633-7.47519-6.30633H42.70633v21.386c2.79367,0,5.58945-1.4297,5.78458-4.22546v-3.12029h1.42965v16.3821H48.49091v-3.05666c-.19513-2.79364-2.99091-4.22544-5.78458-4.22544v19.95634h2.46912c3.83511,0,7.34576-2.2103,7.34576-6.30425v-7.21633Zm29.0563,0v15.14544H63.04883v-1.62486H65.259V155.6112h-2.2102v-1.62485H83.65631v11.70059H81.57547v-3.76941c0-4.096-3.57425-6.30633-7.47516-6.30633H71.76056v21.386c2.79367,0,5.58945-1.4297,5.78454-4.22546v-3.12029h1.42969v16.3821H77.5451v-3.05666c-.19509-2.79364-2.99087-4.22544-5.78454-4.22544v19.95634h2.46912c3.83514,0,7.34579-2.2103,7.34579-6.30425v-7.21633Zm20.14948-6.49942h-2.47123v20.02h2.21024v1.5612h-10.92v-1.5612h2.21032v-43.226H92.62482v-1.56125h11.70062c4.94034,0,11.31033,3.12034,11.31033,11.44186,0,10.79059-4.55,13.32543-11.83,13.32543Zm4.55-16.7703c0-3.186-1.49548-6.2406-4.55-6.2406h-2.47123v21.25456h2.47123c3.11816,0,4.55-2.8594,4.55-6.824v-8.19Zm56.159-6.177v44.59215h-5.39633l-14.16965-31.13516v29.5103H147.613v1.62486h-8.06061v-1.62486h2.66635v-43.226h-2.66635v-1.62485h6.11117l16.12119,32.82576V155.74054h-2.66632v-1.62486h7.99478v1.62486ZM188.107,200.98388h-1.42971c-7.734,0-11.24454-9.81694-11.24454-24.31119,0-12.87151,3.44476-23.467,11.24454-23.467h1.366c8.31949,0,11.24457,10.727,11.24457,23.467,0,14.56-2.92508,24.31119-11.18085,24.31119Zm4.03031-30.81269c0-8.12425-.64911-14.75515-4.87457-14.75515-4.09394,0-4.67945,6.6309-4.67945,14.75515v12.67635c0,10.4003.71488,16.18484,4.94034,16.18484h.25879c3.64,0,4.35489-5.58938,4.35489-16.18484V170.17119Zm39.00055,30.81269c-4.03031,0-6.76032-1.75635-6.76032-7.28v-8.51664c0-.19516,0-.39032-.06579-.45395,0-2.33971-1.23441-6.04547-4.80869-6.04547H217.0318v20.02h1.42975v1.62486H208.25629v-1.62486h2.21032V155.54754h-2.27386v-1.627h11.24451c6.30633,0,11.89578,3.447,11.89578,10.98581,0,5.46-1.36606,8.45088-2.66425,10.2709a6.69826,6.69826,0,0,1-2.66638,2.276c-.19513.06366-.25882.12941-.25882.32454a.29964.29964,0,0,0,.19306.32457,11.79369,11.79369,0,0,1,2.73214,2.33969,10.69507,10.69507,0,0,1,2.73,7.21636v8.5803c0,1.23456.25876,2.46909,1.29819,2.46909a1.653,1.653,0,0,0,1.04157-.25879l.649,1.55911c-.32446.51969-1.42965.97573-3.24966.97573Zm-6.82611-37.63665c0-3.64-1.49326-7.6703-4.80869-7.6703H217.0318v21.25456h2.47125c3.05445,0,4.80869-3.44485,4.80869-8.12425v-5.46Zm40.88638,1.55912-.71484-2.92516c0-4.094-2.92511-6.43365-6.826-6.43365h-.91v43.0309h2.47119v1.75425H247.51782v-1.75425h2.53488v-43.0309h-.91c-3.96454,0-6.88971,2.3397-6.88971,6.43365l-.52176,2.92516h-1.62494V153.92054h26.52152v10.98581Zm36.78821,33.86723v1.55911h-10.01v-1.55911h1.30035V179.53209H282.61755v19.24149H284.306v1.55911h-10.1394v-1.55911h1.9494V155.48179h-2.21027v-1.56125H284.0473v1.56125h-1.42975v21.7106h10.65912v-21.7106h-1.55908v-1.56125h10.01v1.56125H299.7782v43.29179Z" class="a"/>
    <path id="txt_contracting" d="M84.85284,217.03572a3.044,3.044,0,0,0-2.46768-1.2348,2.87716,2.87716,0,0,0-2.01821.772,2.68324,2.68324,0,0,0-.83842,2.0789,2.83655,2.83655,0,0,0,.791,2.09782,2.61017,2.61017,0,0,0,1.91956.79286A3.087,3.087,0,0,0,84.7599,220.321l1.34106,1.38089a5.05889,5.05889,0,0,1-7.32926.43057,4.95584,4.95584,0,0,1,.0266-6.93468,4.81357,4.81357,0,0,1,3.49386-1.39605A4.9485,4.9485,0,0,1,86.154,215.56l-1.30117,1.47571Zm15.144,5.06253a5.107,5.107,0,0,1-7.00111,0,4.90467,4.90467,0,0,1,0-6.90813,5.10707,5.10707,0,0,1,7.00111,0,4.90453,4.90453,0,0,1,0,6.90813Zm-1.51554-5.586a2.65214,2.65214,0,0,0-3.95671,0,3.23793,3.23793,0,0,0,0,4.27156,2.66736,2.66736,0,0,0,3.95671,0,3.238,3.238,0,0,0,0-4.27156Zm15.82687,6.87968-4.46693-5.87437v5.87437h-2.09221v-9.374h1.95937l4.59977,6.03562V214.0179h2.09219v9.374Zm12.93042-7.56443v7.56443h-2.09216v-7.56443h-2.65551V214.0179h7.40321v1.80956Zm14.5655,4.21279,2.37482,3.35164H141.6031l-2.07893-2.99124H138.0769v2.99124h-2.09407v-9.374h3.55463a5.09639,5.09639,0,0,1,3.11836.736,2.84784,2.84784,0,0,1,.93317,2.3748,2.76286,2.76286,0,0,1-1.78488,2.91157Zm-.75116-3.94345a2.56634,2.56634,0,0,0-1.4074-.2826H138.0769v2.77689h1.52881a2.24745,2.24745,0,0,0,1.46244-.349,1.42152,1.42152,0,0,0,.38887-1.1058,1.18186,1.18186,0,0,0-.40407-1.03948Zm15.92178,7.29509-.87068-2.02389h-3.93012l-.87251,2.02389h-2.22686l4.05153-9.374H155.15l4.0515,9.374Zm-2.83-6.58567L152.96487,219.53h2.34636l-1.16652-2.72379Zm17.625.2295a3.04924,3.04924,0,0,0-2.46777-1.2348,2.8742,2.8742,0,0,0-2.0182.772,2.68324,2.68324,0,0,0-.83832,2.0789,2.83669,2.83669,0,0,0,.79089,2.09782,2.60609,2.60609,0,0,0,1.91767.79286,3.0869,3.0869,0,0,0,2.52087-1.22154l1.343,1.38089a5.06106,5.06106,0,0,1-7.33109.43057,4.95579,4.95579,0,0,1,.02652-6.93468,4.81389,4.81389,0,0,1,3.49394-1.39605,4.95237,4.95237,0,0,1,3.8637,1.75832l-1.30116,1.47571Zm11.42814-1.20826v7.56443h-2.09216v-7.56443h-2.65734V214.0179h7.40507v1.80956Zm8.74422,7.56443v-9.374h2.09227v9.374Zm15.5196,0-4.46693-5.87437v5.87437H200.9026v-9.374h1.95754l4.60155,6.03562V214.0179h2.09224v9.374Zm17.15464-4.77423v3.327A4.92031,4.92031,0,0,1,220.75254,223.5a4.76962,4.76962,0,0,1-3.46733-1.36758,4.95819,4.95819,0,0,1,.02846-6.93468,4.75461,4.75461,0,0,1,3.44649-1.39605,5.1049,5.1049,0,0,1,3.50722,1.32776l-1.087,1.57054a4.13935,4.13935,0,0,0-1.15885-.75874,3.12278,3.12278,0,0,0-1.14758-.20674,2.748,2.748,0,0,0-2.0125.80992,3.23931,3.23931,0,0,0-.0322,4.2659,2.52543,2.52543,0,0,0,1.87024.79856,3.60054,3.60054,0,0,0,1.81147-.41539v-2.57584Z" class="a"/>
    <rect width="56.48358" height="2" x="8.77545" y="217.58161" class="a txt_decor"/>
    <rect width="58.88916" height="2" x="234.38751" y="217.58161" class="a txt_decor"/>
    <rect width="90.67337" height="2" x="17.6824" y="140.63733" class="a txt_decor"/>
    <rect width="103.3899" height="2" x="188.32769" y="140.63733" class="a txt_decor"/>
    <path id="shape_deer" d="M189.572,28.57a10.54516,10.54516,0,0,0-.29622-2.46853c-.395-1.57986-.78994-3.15972-1.28364-4.64084-.69119-2.1723-1.38237-4.34461-2.1723-6.51691A17.0329,17.0329,0,0,0,184.24,11.29026c-.59245-.98742-1.17844-2.07349-1.83331-2.96224-.3428-.46523-3.25977-3.2806-4.25257-4.11107-.10712-.0896-.318-.25021-.431-.33228a18.67988,18.67988,0,0,0-2.79683-1.73654A29.65244,29.65244,0,0,1,171.823.79835C170.54163-.029,168.93514-.3612,169.52758.52747a10.74311,10.74311,0,0,0,2.07357,2.56727c.78993.69119,1.48112,1.48112,2.27105,2.271s1.38237,1.48111,2.07357,2.1723a18.29668,18.29668,0,0,1,2.76475,2.76475c.59246.88867,1.28364,1.77734,1.97483,2.666a13.82786,13.82786,0,0,1,.98741,1.57986,25.26833,25.26833,0,0,1,1.67859,4.24587,12.10578,12.10578,0,0,1,.78994,3.25846c0,.29622.09874.59245-.09875.88867a.3654.3654,0,0,1-.29623-.09874,1.76748,1.76748,0,0,1-.4937-.69119c-.59246-.98741-1.18489-1.97483-1.77735-3.061-1.18489-2.07356-2.36978-4.24587-3.55468-6.31943a32.17089,32.17089,0,0,0-2.36979-3.94965,6.91047,6.91047,0,0,1-.59245-.88867c-.09875.09875-.19748.19749-.19748.29623a8.06724,8.06724,0,0,0-.09875,2.666,19.50024,19.50024,0,0,0,.78994,2.56727c.59245,1.57986,1.18489,3.15972,1.87607,4.73957a6.29106,6.29106,0,0,1,.19748.69119c-.29622-.09874-.395-.19748-.59245-.19748-1.18489-.49371-2.46853-.88867-3.65342-1.38238-1.6786-.59245-3.25846-1.28363-4.93706-1.87608-1.48111-.59245-2.96223-1.28363-4.5421-1.87608-1.08615-.395-2.271-.78993-3.45594-1.18489-1.67859-.59245-3.45594-1.28364-5.13453-1.77734a53.072,53.072,0,0,1-5.03581-1.97483,7.08,7.08,0,0,0-2.46852-.69119c-.19748,0-.49371-.09874-.78994-.09874.29623.98741.49371,1.87608,1.38237,2.271a.09874.09874,0,0,1,.09875.09873h0a28.95055,28.95055,0,0,0,4.93706,3.3572c1.38237.78993,2.86348,1.57986,4.24587,2.46853a20.73484,20.73484,0,0,0,2.56728,1.28363,28.2796,28.2796,0,0,1,4.64083,2.17231,35.75481,35.75481,0,0,0,3.94964,1.87608,34.47963,34.47963,0,0,1,3.8509,1.87608l2.666,1.48112a31.71411,31.71411,0,0,1,2.96223,2.07356c1.38237,1.1849,2.86349,2.46853,4.34461,3.55468a1.19467,1.19467,0,0,1,.4937.49371,11.26627,11.26627,0,0,0,1.08616,1.08615,2.10313,2.10313,0,0,1,.69118,1.48112,4.809,4.809,0,0,0,.09875,1.18489,4.5124,4.5124,0,0,1-1.08616,3.65342l-2.07357,2.07356a11.84709,11.84709,0,0,1-1.18489,1.08616,27.15482,27.15482,0,0,1-2.76475,1.87608c-.78993.4937-1.48112,1.18489-2.27105,1.6786a21.83285,21.83285,0,0,1-3.35719,1.77734c-1.28364.59244-2.666,1.08615-3.94965,1.6786a3.62379,3.62379,0,0,1-2.86349.29622,2.271,2.271,0,0,1-1.38237-.88867,16.883,16.883,0,0,1-1.08615-1.38238,4.11747,4.11747,0,0,1-.78994-1.77734,3.357,3.357,0,0,1-.09874-.98741c-.09875-.78993-.33875-.65875-.43748-1.44868-.09875-1.38238-.05623-3.7846-.05623-5.167a44.95781,44.95781,0,0,0-.395-5.23328,1.21447,1.21447,0,0,0-.395-.78992.48378.48378,0,0,0-.29622-.09874,1.45151,1.45151,0,0,0-.59246.4937,5.19392,5.19392,0,0,0-.39495,1.6786c-.09875,1.28364-.09875,2.666-.09875,4.04839.01606.29963.00685,1.97482.00685,2.56727,0,1.97482.216,3.94965.216,5.92447a3.07345,3.07345,0,0,0,.84341,2.285c.65941.6594.629,1.76864.67885,2.69481a10.29344,10.29344,0,0,1-.41142,2.46853c-.47951,1.39316-1.61409,1.27523-2.67346,2.29923a14.654,14.654,0,0,0-1.32624,1.114,6.8133,6.8133,0,0,1-1.77734,1.57986,1.90567,1.90567,0,0,1-.98741.29622h-1.6786c-1.6786.09874-3.45594.09874-5.13454.19749a3.5646,3.5646,0,0,1-2.46853-.59245.92816.92816,0,0,1-.4937-.88867c.09875-1.28364.09875-2.46853.09875-3.75216V50.688c.09874-1.57985.19748-3.061.39495-4.64083.09875-.98741.19748-1.87608.29623-2.86349s.19748-2.07357.29623-3.061.19748-2.07356.29622-3.15972a8.49088,8.49088,0,0,0,.09875-1.57985h-.19748c-.09875,0-.09875,0-.19748.09874a2.65611,2.65611,0,0,0-1.48111,1.77734c-.29623,1.28363-.59246,2.46853-.88867,3.75216a2.73525,2.73525,0,0,0-.09875.88867c-.19748,1.08615-.39495,2.27105-.4937,3.3572a44.4324,44.4324,0,0,1-.78993,5.0358.98741.98741,0,0,1-1.07632.88965l-.00984-.001a3.35733,3.35733,0,0,1-.98741-.09874,15.34443,15.34443,0,0,1-3.94965-1.6786c-.98741-.59244-1.97482-1.18489-2.96223-1.87608-.59246-.395-1.18489-.78993-1.08616-1.77734v-.05924a14.64323,14.64323,0,0,1,.09875-4.64084,36.71148,36.71148,0,0,1,1.87607-6.41817,38.10465,38.10465,0,0,0,1.57986-4.73957c.49371-1.97483,1.08616-3.85091,1.57987-5.82573l1.18489-5.332v-.49371l-.19748.19749a18.98675,18.98675,0,0,0-1.77734,3.061,41.94593,41.94593,0,0,0-2.07357,4.83832,27.38562,27.38562,0,0,1-.98741,2.56727c-.78994,1.77734-1.48112,3.45594-2.27105,5.13454a1.36281,1.36281,0,0,1-.395.29622c-.395.09874-.59245-.09874-.78993-.395a.59134.59134,0,0,0-.59246-.29622c-.19749,0-.395.29622-.4937.59244v.395c0,.78993.09874,1.48112.09874,2.271a31.99228,31.99228,0,0,1-.19747,4.34461,5.58873,5.58873,0,0,1-.78994,2.46853.9874.9874,0,0,1-1.28363.4937,1.77734,1.77734,0,0,1-.88868-.59244,11.2673,11.2673,0,0,1-1.08615-1.08615,15.73039,15.73039,0,0,1-1.28364-1.28364,2.71542,2.71542,0,0,1-.78993-1.48112,27.89454,27.89454,0,0,1-.19748-2.86349,26.5714,26.5714,0,0,1,.59245-6.22069c.19748-1.08615.59244-2.17231.88867-3.25846s.49371-2.07356.88867-3.15972c.09874-.29622.19748-.4937.29623-.78992a25.52525,25.52525,0,0,0,.88867-3.94965,66.58384,66.58384,0,0,1,1.67863-7.40559c.4937-1.77734.88866-3.55468,1.28363-5.332a2.73494,2.73494,0,0,0,.09875-.88867.75038.75038,0,0,1-.395.09874,4.80871,4.80871,0,0,0-2.1723,2.666c-.29623.69119-.59244,1.48112-.88867,2.17231a19.99472,19.99472,0,0,0-1.38238,3.3572c-.59244,1.77734-1.18489,3.65342-1.67859,5.43076-.29623.98741-.69119,1.97482-.98742,2.96223-.4937,1.77734-1.08615,3.45594-1.57985,5.23328-.29623,1.1849-.69119,2.271-.88867,3.45594-.09874.59245-.09874,1.1849-.19748,1.77734a25.87121,25.87121,0,0,0-.09877,2.76476v1.28363a1.36264,1.36264,0,0,1-.59244,1.08615.60232.60232,0,0,1-.78993,0,3.298,3.298,0,0,1-1.38238-2.36979c-.09874-.395-.09874-.78993-.19748-1.08615a10.34813,10.34813,0,0,1-.09874-2.46853,31.05427,31.05427,0,0,1,.29623-4.34461,6.9709,6.9709,0,0,1,.59244-2.36978,9.9636,9.9636,0,0,0,.69119-1.48112c.29622-.69119.69118-1.48112.98741-2.17231l1.48112-2.36978a4.36444,4.36444,0,0,0,.59244-1.57986,10.86153,10.86153,0,0,0,.19748-1.77734v-.78993c0-.19748-.09874-.395-.19748-.395a4.27655,4.27655,0,0,1-.4937.09875.21722.21722,0,0,0-.19748.19748,19.25346,19.25346,0,0,0-1.77735,2.46853c-.09874.29622-.29622.395-.69118.29622v-.98741a7.79074,7.79074,0,0,1,.4937-2.96224c.29623-.88867.49371-1.67859.78994-2.56727a11.61225,11.61225,0,0,0,.29622-2.07356,1.05654,1.05654,0,0,0-.4937.29622,7.31684,7.31684,0,0,0-1.18489,1.28364,21.01207,21.01207,0,0,0-1.77735,4.04839c-.395,1.18489-.78993,2.46852-1.18489,3.75216a9.87379,9.87379,0,0,0-.395,2.36979,18.94886,18.94886,0,0,1-.29623,2.1723,2.04393,2.04393,0,0,1-.59245.98741,5.79617,5.79617,0,0,0-1.97482,2.8635c0,.09874-.09874.19748-.09874.29622-.4937,1.28363-.98741,2.56727-1.38238,3.94964a9.49913,9.49913,0,0,0-.19748,3.3572,13.53716,13.53716,0,0,0,.78994,3.45594,3.94954,3.94954,0,0,0,.98741,1.77734,9.30941,9.30941,0,0,0,.98741.98741,20.31135,20.31135,0,0,0,2.96223,2.8635c.59245.395,1.08615.78993,1.57986,1.18489a15.71871,15.71871,0,0,0,2.1723,1.28364,8.74852,8.74852,0,0,1,1.6786.78993,47.06052,47.06052,0,0,0,5.13453,2.1723,22.38446,22.38446,0,0,1,4.93706,2.27105,15.977,15.977,0,0,0,1.77735.98741l2.96223,1.48112c.88866.4937,1.77734,1.08615,2.666,1.6786a2.3105,2.3105,0,0,1,.69118.69118A8.75843,8.75843,0,0,0,139.214,58.923c.19748.19749.09875.59245-.19748.88867a.474.474,0,0,1-.66994.02125l-.02124-.02125c-.19748-.19748-.49371-.395-.59246-.69118a20.89437,20.89437,0,0,0-1.18489-1.97483,10.05172,10.05172,0,0,0-3.25846-2.86349c-1.57986-.88867-3.15971-1.6786-4.73957-2.56727a11.84887,11.84887,0,0,0-3.25846-1.28363l-1.1849-.29623a4.76651,4.76651,0,0,0-2.35651-.33459c-.64173-.04929-.77786.52809-.67912,1.02179a27.7748,27.7748,0,0,0-.01543,2.86748,19.13282,19.13282,0,0,0,1.26512,4.029A17.37249,17.37249,0,0,0,124.075,61.3244c.59244.88867,1.11855,2.04116,1.711,2.92983a9.38661,9.38661,0,0,0,1.18412,1.58064c1.08616.88867,2.1723,1.87608,3.35719,2.76476a2.16786,2.16786,0,0,0,.395.29622,4.08142,4.08142,0,0,0,1.08616.395c.69118.29622,1.18436.16985,1.86656.48625a4.90645,4.90645,0,0,1,1.3243.6273c.42608.42609.7601.46577,1.20286.90853.68024.68024-.90275,2.21438-1.19773,2.50936-.847.847-2.18522,2.06294-3.07192,2.85508a30.8945,30.8945,0,0,1-2.92738,2.23038c-1.1346.81112-1.07587.73341-2.18973,1.57279a2.05292,2.05292,0,0,0-.79193,1.692,10.80851,10.80851,0,0,1,0,1.6354,3.29976,3.29976,0,0,0,.324,2.487,8.24514,8.24514,0,0,0,1.41468,1.90612c.40581.42254,1.01458,1.40954,1.42884,1.8238a11.68584,11.68584,0,0,0,2.22785,1.99552,8.086,8.086,0,0,0,3.34812,1.12935c.85512.05828,1.42438.03485,2.27686.03485.22748,0,.7999.082,1.06269.12174,2.19294.33131,2.53138,1.68669,2.54814,2.44718a32.60449,32.60449,0,0,1-.74056,6.1416c-.71373,3.94964-.33611,3.52977-3.45594,6.74731-1.60549,1.65577-3.578,2.983-4.64973,3.99582a29.53421,29.53421,0,0,1-5.43076,3.75217,4.226,4.226,0,0,0-1.28364.88867,20.83418,20.83418,0,0,0-1.87608,2.27105,6.65511,6.65511,0,0,0-1.28364,3.3572,24.2713,24.2713,0,0,0-.19748,2.76475c-.09874,1.28364-.19748,2.46853-.19748,3.75217,0,.395.09874.88866.09874,1.28364a12.22238,12.22238,0,0,1,1.16088,2.86667,23.16778,23.16778,0,0,0,1.06455,2.16913,12.75731,12.75731,0,0,0,1.89768,3.12018,8.23927,8.23927,0,0,0,2.65366,2.19856c3.78959,1.13085,6.45137-1.50371,9.99754.24685,3.20909,2.3451,8.356,5.13454,12.89807,5.92447,5.332.88866,9.33994-4.58685,13.05767-4.58685,1.375,0,2.71982.92071,4.21875.65524,1.41163-.25,4.73953-3.17967,5.826-4.57544a19.30868,19.30868,0,0,0,2.13832-2.9099c.54834-1.48494,2.37517-4.30062,2.17769-5.88048-.02573-.45355-1.14173-6.87486-1.37541-7.26443a55.73735,55.73735,0,0,0-2.88065-5.96561c-.32165-.4293-1.56271-1.81026-1.56271-1.81026-.10952-.18012-1.48313-.96462-1.50357-1.17444-.01337-.52849-.40962-2.13053-.51016-2.64955-.46929-2.42267-1.20019-3.28536-1.00271-5.06271,0,0-.33677-2.752-.48276-4.09152-.21173-1.94262-.00108-3.94577-.29275-5.868-.24266-1.59931-.47922-3.25846-.57795-4.83831l-.29622-2.666c-.19748-1.38238-.29623-2.76476-.59246-4.14713-.29622-1.67859-.58045-2.88621-.97542-4.56481a6.45473,6.45473,0,0,1-.20948-1.35965c.09874-.88868.19748-1.77735.29622-2.76476.09875-.59244.06947-1.09292.19748-1.57985a3.46021,3.46021,0,0,1,1.306-2.35548c1.92837-1.92837,2.79759-2.0716,4.11405-3.58948a20.21873,20.21873,0,0,0,2.25767-3.02909,13.51853,13.51853,0,0,0,1.04912-2.74624c.29973-.93349.63569-2.02567.81771-2.65367a31.84339,31.84339,0,0,0,.89484-4.33535A20.26452,20.26452,0,0,0,177.24,52.278c-.20623-1.44031-.56539-1.53428-1.23253-1.53428-.63367.14592-.53405-.51414.432-1.20106,1.8769-1.3346,3.53663-2.19068,5.43077-3.3572a9.66676,9.66676,0,0,0,3.061-2.56726c1.18489-1.57986,2.36978-3.15972,3.55468-4.83832a3.83111,3.83111,0,0,0,.88867-2.27105c.09875-1.18489.19748-2.46853.19748-3.65342C189.67078,31.86791,189.572,30.14981,189.572,28.57Z" class="b"/>
</svg>
