<svg xmlns="http://www.w3.org/2000/svg" xmlns:xlink="http://www.w3.org/1999/xlink" viewBox="0 0 251.364 202.254">
  <defs>
    <style>
      .cls-1, .cls-2, .cls-5 {
        fill: #fff;
      }

      .cls-1 {
        stroke: #707070;
      }

      .cls-3 {
        fill: #d7a03d;
      }

      .cls-4 {
        clip-path: url(#clip-path);
      }

      .cls-5 {
        stroke: #d7a03d;
      }

      .cls-6 {
        clip-path: url(#clip-path-2);
      }

      .cls-7 {
        filter: url(#Line-4);
      }

      .cls-8 {
        filter: url(#Line-3);
      }

      .cls-9 {
        filter: url(#Line-2);
      }

      .cls-10 {
        filter: url(#Line);
      }
    </style>
    <filter id="Line" x="0" y="111.691" width="93.662" height="19.617" filterUnits="userSpaceOnUse">
      <feOffset dy="3" input="SourceAlpha"/>
      <feGaussianBlur stdDeviation="3" result="blur"/>
      <feFlood flood-opacity="0.161"/>
      <feComposite operator="in" in2="blur"/>
      <feComposite in="SourceGraphic"/>
    </filter>
    <filter id="Line-2" x="1.373" y="172.728" width="60.474" height="19.617" filterUnits="userSpaceOnUse">
      <feOffset dy="3" input="SourceAlpha"/>
      <feGaussianBlur stdDeviation="3" result="blur-2"/>
      <feFlood flood-opacity="0.161"/>
      <feComposite operator="in" in2="blur-2"/>
      <feComposite in="SourceGraphic"/>
    </filter>
    <filter id="Line-3" x="190.971" y="172.728" width="60.393" height="19.617" filterUnits="userSpaceOnUse">
      <feOffset dy="3" input="SourceAlpha"/>
      <feGaussianBlur stdDeviation="3" result="blur-3"/>
      <feFlood flood-opacity="0.161"/>
      <feComposite operator="in" in2="blur-3"/>
      <feComposite in="SourceGraphic"/>
    </filter>
    <filter id="Line-4" x="155.037" y="111.691" width="93.581" height="19.617" filterUnits="userSpaceOnUse">
      <feOffset dy="3" input="SourceAlpha"/>
      <feGaussianBlur stdDeviation="3" result="blur-4"/>
      <feFlood flood-opacity="0.161"/>
      <feComposite operator="in" in2="blur-4"/>
      <feComposite in="SourceGraphic"/>
    </filter>
    <clipPath id="clip-path">
      <path id="Path_3" data-name="Path 3" class="cls-1" d="M128.318,250.347v1.132H124.2V245.82h4.037v1.132h-2.826v1.132h2.5v1.083h-2.5v1.213Zm3.714-3.557a.686.686,0,0,0-.485.162c-.161.081-.161.243-.161.4a.445.445,0,0,0,.242.4,3.171,3.171,0,0,0,1.05.323,2.817,2.817,0,0,1,1.211.566,1.311,1.311,0,0,1,.4,1.132,1.456,1.456,0,0,1-.565,1.213,2.324,2.324,0,0,1-1.534.485,3.559,3.559,0,0,1-2.422-.97l.727-.889a2.527,2.527,0,0,0,1.7.808,1.17,1.17,0,0,0,.565-.162c.161-.081.161-.243.161-.4a.445.445,0,0,0-.242-.4c-.162-.081-.4-.162-.808-.323a3.042,3.042,0,0,1-1.453-.647,1.415,1.415,0,0,1-.484-1.213,1.278,1.278,0,0,1,.565-1.213,2.2,2.2,0,0,1,1.453-.4,5.444,5.444,0,0,1,1.13.162,2.793,2.793,0,0,1,.969.566l-.646.889a2.332,2.332,0,0,0-1.373-.485Zm6.46.162v4.527H137.2v-4.527h-1.615V245.82h4.441v1.051h-1.534Zm3.876,4.366a.694.694,0,0,1-.484.243.573.573,0,0,1-.484-.243.7.7,0,0,1-.242-.485.574.574,0,0,1,.242-.485.694.694,0,0,1,.484-.243.573.573,0,0,1,.484.243.7.7,0,0,1,.242.485A.574.574,0,0,1,142.368,251.317Zm8.882.162h-3.957v-.97l1.7-1.7c.323-.323.565-.647.727-.808a1.076,1.076,0,0,0,.242-.566,1.149,1.149,0,0,0-.162-.485.589.589,0,0,0-.484-.162,1.187,1.187,0,0,0-.969.728l-.969-.566a3.443,3.443,0,0,1,.888-.97,1.944,1.944,0,0,1,1.211-.323,1.977,1.977,0,0,1,1.292.485,1.5,1.5,0,0,1,.565,1.293,1.367,1.367,0,0,1-.242.808,6.118,6.118,0,0,1-.807,1.051l-1.05,1.051h2.261v1.132Zm5.814-.728a2.356,2.356,0,0,1-3.553,0,3.407,3.407,0,0,1-.565-2.1,3.237,3.237,0,0,1,.565-2.1,2.356,2.356,0,0,1,3.553,0,3.407,3.407,0,0,1,.565,2.1A4.046,4.046,0,0,1,157.065,250.752Zm-.969-3.476a.888.888,0,0,0-.807-.485.807.807,0,0,0-.808.485,4.047,4.047,0,0,0,0,2.749.888.888,0,0,0,.808.485.807.807,0,0,0,.807-.485,4.047,4.047,0,0,0,0-2.749Zm4.118,4.2v-4.608h-1.05V245.82h2.261v5.659Zm4.6-3.638a1.194,1.194,0,0,1,.565-.081,1.9,1.9,0,0,1,1.373.485,1.618,1.618,0,0,1,.565,1.294,1.731,1.731,0,0,1-.646,1.374,2.372,2.372,0,0,1-1.534.566,2.623,2.623,0,0,1-1.938-.808l.646-.889.161.162a1.316,1.316,0,0,0,.485.243,1.9,1.9,0,0,0,.646.162,1.17,1.17,0,0,0,.565-.162.736.736,0,0,0,.242-.566.631.631,0,0,0-.242-.566.984.984,0,0,0-.727-.243,1.549,1.549,0,0,0-.969.323l-.485-.566V245.82h3.391v1.051h-2.261v.97Z" transform="translate(-124.2 -245.652)"/>
    </clipPath>
    <clipPath id="clip-path-2">
      <path id="Path_4" data-name="Path 4" class="cls-1" d="M77.063,222.032A2.825,2.825,0,0,0,74.8,220.9a2.7,2.7,0,0,0-1.857.728,2.427,2.427,0,0,0-.727,1.859,2.489,2.489,0,0,0,2.422,2.587,2.825,2.825,0,0,0,2.261-1.132l1.211,1.213a4.528,4.528,0,0,1-3.391,1.617,4.583,4.583,0,0,1-3.23-1.213,4.328,4.328,0,0,1-1.292-3.153,4.045,4.045,0,0,1,1.292-3.153,4.6,4.6,0,0,1,3.149-1.294,4.439,4.439,0,0,1,3.472,1.617l-1.05,1.455Zm13.647,4.608a4.6,4.6,0,0,1-3.149,1.293,4.14,4.14,0,0,1-3.149-1.293,4.045,4.045,0,0,1-1.292-3.153,4.15,4.15,0,0,1,1.292-3.153,4.6,4.6,0,0,1,3.149-1.294A4.412,4.412,0,0,1,92,223.487a4.15,4.15,0,0,1-1.292,3.153Zm-1.373-5.093a2.356,2.356,0,0,0-3.553,0,2.953,2.953,0,0,0,0,3.88,2.356,2.356,0,0,0,3.553,0,2.759,2.759,0,0,0,.727-1.94,2.9,2.9,0,0,0-.727-1.94Zm14.293,6.225-4.037-5.336v5.336H97.734v-8.489h1.776l4.118,5.417v-5.417h1.857v8.489Zm11.709-6.872v6.872H113.4V220.9h-2.422v-1.617h6.7V220.9Zm13.162,3.881,2.18,2.991h-2.342l-1.857-2.668h-1.292v2.668h-1.857v-8.489h3.23a5.018,5.018,0,0,1,2.826.647,2.6,2.6,0,0,1,.807,2.183,2.733,2.733,0,0,1-1.7,2.668Zm-.727-3.638a2.42,2.42,0,0,0-1.292-.243h-1.454v2.506H126.4a1.775,1.775,0,0,0,1.292-.323,1.286,1.286,0,0,0,.323-.97.809.809,0,0,0-.242-.97Zm14.373,6.629-.807-1.859h-3.553l-.807,1.859h-2.019l3.634-8.489h1.857l3.634,8.489Zm-2.5-5.982-1.05,2.425h2.1Zm15.907.243a2.825,2.825,0,0,0-2.261-1.132,2.7,2.7,0,0,0-1.857.728,2.427,2.427,0,0,0-.727,1.859,2.489,2.489,0,0,0,2.422,2.587,2.825,2.825,0,0,0,2.261-1.132l1.211,1.213a4.528,4.528,0,0,1-3.391,1.617,4.583,4.583,0,0,1-3.23-1.213,4.328,4.328,0,0,1-1.292-3.153,4.045,4.045,0,0,1,1.292-3.153,4.6,4.6,0,0,1,3.149-1.294,4.439,4.439,0,0,1,3.472,1.617l-1.05,1.455Zm10.255-1.132v6.872h-1.857V220.9h-2.422v-1.617h6.7V220.9Zm7.913,6.872v-8.489h1.857v8.489Zm14.05,0-4.037-5.336v5.336h-1.857v-8.489h1.776l4.118,5.417v-5.417h1.857v8.489Zm15.5-4.285v2.991a4.285,4.285,0,0,1-3.472,1.374,4.527,4.527,0,0,1-3.149-1.213,4.328,4.328,0,0,1-1.292-3.153,4.045,4.045,0,0,1,1.292-3.153,4.455,4.455,0,0,1,3.149-1.293,4.527,4.527,0,0,1,3.149,1.213l-.969,1.455a3.076,3.076,0,0,0-1.05-.647,2.21,2.21,0,0,0-1.05-.162,2.7,2.7,0,0,0-1.857.728,2.953,2.953,0,0,0,0,3.88,2.324,2.324,0,0,0,1.7.728,3.179,3.179,0,0,0,1.615-.4v-2.344Z" transform="translate(-70.195 -218.96)"/>
    </clipPath>
  </defs>
  <g id="Symbol_2_1" data-name="Symbol 2 – 1" transform="translate(-62.368 -136)">
    <g class="cls-10" transform="matrix(1, 0, 0, 1, 62.37, 136)">
      <rect id="Line-5" data-name="Line" class="cls-2" width="75.661" height="1.617" transform="translate(9 117.69)"/>
    </g>
    <g class="cls-9" transform="matrix(1, 0, 0, 1, 62.37, 136)">
      <rect id="Line-6" data-name="Line" class="cls-2" width="42.474" height="1.617" transform="translate(10.37 178.73)"/>
    </g>
    <g class="cls-8" transform="matrix(1, 0, 0, 1, 62.37, 136)">
      <rect id="Line-7" data-name="Line" class="cls-2" width="42.393" height="1.617" transform="translate(199.97 178.73)"/>
    </g>
    <g class="cls-7" transform="matrix(1, 0, 0, 1, 62.37, 136)">
      <rect id="Line-8" data-name="Line" class="cls-2" width="75.581" height="1.617" transform="translate(164.04 117.69)"/>
    </g>
    <path id="Deer" class="cls-3" d="M174.406,25.151a8.489,8.489,0,0,0-.238-1.985c-.317-1.271-.635-2.541-1.031-3.732-.555-1.747-1.11-3.494-1.745-5.241a13.706,13.706,0,0,0-1.269-2.938c-.476-.794-.952-1.588-1.348-2.382a1.494,1.494,0,0,1-.159-.635,18.1,18.1,0,0,1-.159-2.065A6.234,6.234,0,0,0,168.3,5.06a2.379,2.379,0,0,1-.635.318,2.433,2.433,0,0,1-2.538.079c-.079-.079-.159-.079-.238-.159-.714-.476-1.507-1.032-2.221-1.509S161.24,2.757,160.526,2.2A15.6,15.6,0,0,0,157.512.137a.6.6,0,0,0-.635,0c0,.079.079.159.079.238.476.715.873,1.509,1.348,2.224a8.638,8.638,0,0,0,1.666,2.065c.635.556,1.19,1.191,1.824,1.826s1.11,1.191,1.666,1.747a14.706,14.706,0,0,1,2.221,2.224c.476.715,1.031,1.429,1.586,2.144a11.119,11.119,0,0,1,.793,1.271,20.334,20.334,0,0,1,1.348,3.415,9.743,9.743,0,0,1,.635,2.621c0,.238.079.476-.079.715a.293.293,0,0,1-.238-.079,1.422,1.422,0,0,1-.4-.556c-.476-.794-.952-1.588-1.428-2.462-.952-1.668-1.9-3.415-2.855-5.082a25.88,25.88,0,0,0-1.9-3.176,5.563,5.563,0,0,1-.476-.715c-.079.079-.159.159-.159.238a6.5,6.5,0,0,0-.079,2.144A15.7,15.7,0,0,0,163.064,13c.476,1.271.952,2.541,1.507,3.812a5.064,5.064,0,0,1,.159.556c-.238-.079-.317-.159-.476-.159-.952-.4-1.983-.715-2.935-1.112-1.348-.476-2.617-1.032-3.966-1.509-1.19-.476-2.38-1.032-3.649-1.509-.873-.318-1.824-.635-2.776-.953-1.348-.476-2.776-1.032-4.125-1.429a42.6,42.6,0,0,1-4.045-1.588,5.682,5.682,0,0,0-1.983-.556c-.159,0-.4-.079-.635-.079.238.794.4,1.509,1.11,1.826a.079.079,0,0,1,.079.079,23.254,23.254,0,0,0,3.966,2.7c1.11.635,2.3,1.271,3.411,1.985A16.648,16.648,0,0,0,150.77,16.1a22.706,22.706,0,0,1,3.728,1.747,28.705,28.705,0,0,0,3.173,1.509,27.679,27.679,0,0,1,3.093,1.509l2.142,1.191a25.478,25.478,0,0,1,2.38,1.668c1.11.953,2.3,1.985,3.49,2.859a.96.96,0,0,1,.4.4,9.055,9.055,0,0,0,.872.874,1.692,1.692,0,0,1,.555,1.191,3.87,3.87,0,0,0,.079.953,3.632,3.632,0,0,1-.873,2.938L168.14,34.6a9.522,9.522,0,0,1-.952.874,21.808,21.808,0,0,1-2.221,1.509c-.635.4-1.19.953-1.824,1.35a17.53,17.53,0,0,1-2.7,1.429c-1.031.476-2.142.874-3.173,1.35a2.908,2.908,0,0,1-2.3.238,1.824,1.824,0,0,1-1.11-.715,13.583,13.583,0,0,1-.873-1.112,3.313,3.313,0,0,1-.635-1.429,2.7,2.7,0,0,1-.079-.794c-.079-.635-.079-1.35-.159-1.985-.079-1.112-.238-2.224-.238-3.335a36.2,36.2,0,0,0-.317-4.209.977.977,0,0,0-.317-.635.388.388,0,0,0-.238-.079,1.167,1.167,0,0,0-.476.4,4.182,4.182,0,0,0-.317,1.35c-.079,1.032-.079,2.144-.079,3.256a2.2,2.2,0,0,1-.079.715c0,.476-.079.874-.079,1.35,0,1.588.079,3.176.079,4.765a17.961,17.961,0,0,0,.079,2.065,21.135,21.135,0,0,1,.238,2.224,2.551,2.551,0,0,1-.079,1.112,7.251,7.251,0,0,1-1.9,2.938c-.159.159-.317.238-.4.4a5.475,5.475,0,0,1-1.428,1.271,1.53,1.53,0,0,1-.793.238h-1.348c-1.348.079-2.776.079-4.125.159a2.861,2.861,0,0,1-1.983-.476.747.747,0,0,1-.4-.715c.079-1.032.079-1.985.079-3.018V42.94c.079-1.271.159-2.462.317-3.732.079-.794.159-1.509.238-2.3s.159-1.668.238-2.462.159-1.668.238-2.541a6.834,6.834,0,0,0,.079-1.271h-.159c-.079,0-.079,0-.159.079a2.136,2.136,0,0,0-1.19,1.429c-.238,1.032-.476,1.985-.714,3.018a2.2,2.2,0,0,0-.079.715c-.159.874-.317,1.826-.4,2.7a35.767,35.767,0,0,1-.635,4.05.793.793,0,0,1-.873.715,2.694,2.694,0,0,1-.793-.079,12.319,12.319,0,0,1-3.173-1.35c-.793-.476-1.586-.953-2.38-1.509-.476-.318-.952-.635-.872-1.429v-.048a11.79,11.79,0,0,1,.079-3.732,29.552,29.552,0,0,1,1.507-5.162,30.667,30.667,0,0,0,1.269-3.812c.4-1.588.873-3.1,1.269-4.685l.952-4.288v-.4l-.159.159a15.279,15.279,0,0,0-1.428,2.462,33.764,33.764,0,0,0-1.666,3.891,22.026,22.026,0,0,1-.793,2.065c-.635,1.429-1.19,2.779-1.824,4.129a1.094,1.094,0,0,1-.317.238c-.317.079-.476-.079-.635-.318a.475.475,0,0,0-.476-.238c-.159,0-.317.238-.4.476v.318c0,.635.079,1.191.079,1.826a25.762,25.762,0,0,1-.159,3.494,4.5,4.5,0,0,1-.635,1.985.793.793,0,0,1-1.031.4,1.428,1.428,0,0,1-.714-.476,9.051,9.051,0,0,1-.872-.874,12.645,12.645,0,0,1-1.031-1.032,2.185,2.185,0,0,1-.635-1.191,22.46,22.46,0,0,1-.159-2.3,21.394,21.394,0,0,1,.476-5c.159-.874.476-1.747.714-2.621s.4-1.668.714-2.541c.079-.238.159-.4.238-.635a20.548,20.548,0,0,0,.714-3.176,53.606,53.606,0,0,1,1.348-5.956c.4-1.429.714-2.859,1.031-4.288a2.2,2.2,0,0,0,.079-.715.6.6,0,0,1-.317.079,3.866,3.866,0,0,0-1.745,2.144c-.238.556-.476,1.191-.714,1.747a16.09,16.09,0,0,0-1.11,2.7c-.476,1.429-.952,2.938-1.348,4.368-.238.794-.555,1.588-.793,2.382-.4,1.429-.872,2.779-1.269,4.209-.238.953-.555,1.826-.714,2.779-.079.476-.079.953-.159,1.429a20.832,20.832,0,0,0-.079,2.224v1.032a1.1,1.1,0,0,1-.476.874.483.483,0,0,1-.635,0,2.653,2.653,0,0,1-1.11-1.906c-.079-.318-.079-.635-.159-.874a8.334,8.334,0,0,1-.079-1.985,25.006,25.006,0,0,1,.238-3.494,5.613,5.613,0,0,1,.476-1.906,8.017,8.017,0,0,0,.555-1.191c.238-.556.555-1.191.793-1.747l1.19-1.906a3.512,3.512,0,0,0,.476-1.271,8.746,8.746,0,0,0,.159-1.429v-.635c0-.159-.079-.318-.159-.318a3.432,3.432,0,0,1-.4.079.175.175,0,0,0-.159.159,15.484,15.484,0,0,0-1.428,1.985c-.079.238-.238.318-.555.238v-.794a6.272,6.272,0,0,1,.4-2.382c.238-.715.4-1.35.635-2.065a9.348,9.348,0,0,0,.238-1.668.848.848,0,0,0-.4.238,5.88,5.88,0,0,0-.952,1.032A16.91,16.91,0,0,0,114.2,14.3c-.317.953-.635,1.985-.952,3.018a7.951,7.951,0,0,0-.317,1.906,15.252,15.252,0,0,1-.238,1.747,1.644,1.644,0,0,1-.476.794,4.662,4.662,0,0,0-1.586,2.3c0,.079-.079.159-.079.238-.4,1.032-.793,2.065-1.11,3.176a7.648,7.648,0,0,0-.159,2.7,10.9,10.9,0,0,0,.635,2.779,3.178,3.178,0,0,0,.793,1.429,7.487,7.487,0,0,0,.793.794,16.323,16.323,0,0,0,2.38,2.3c.476.318.873.635,1.269.953a12.627,12.627,0,0,0,1.745,1.032,7.024,7.024,0,0,1,1.348.635,37.782,37.782,0,0,0,4.125,1.747,17.972,17.972,0,0,1,3.966,1.826,12.829,12.829,0,0,0,1.428.794l2.38,1.191c.714.4,1.428.874,2.142,1.35a1.858,1.858,0,0,1,.555.556,7.046,7.046,0,0,0,1.11,1.985c.159.159.079.476-.159.715a.38.38,0,0,1-.555,0c-.159-.159-.4-.318-.476-.556a16.812,16.812,0,0,0-.952-1.588,8.078,8.078,0,0,0-2.618-2.3c-1.269-.715-2.538-1.35-3.807-2.065a9.512,9.512,0,0,0-2.618-1.032l-.952-.238a6.338,6.338,0,0,0-2.459-.238c-.4.079-.476.079-.4.476.079.874.159,1.747.317,2.621a20,20,0,0,0,1.031,3.732,11.408,11.408,0,0,0,1.269,2.621c.476.715,1.031,1.509,1.507,2.224a7.416,7.416,0,0,0,1.031,1.191c.873.715,1.745,1.509,2.7,2.224.079.079.238.159.317.238.317.079.555.238.873.318.555.238,1.11.4,1.666.635.159.079.317.159.317.4l.238,1.668a.8.8,0,0,1-.238.794c-.714.635-1.428,1.35-2.142,1.985a29.845,29.845,0,0,1-2.459,1.985,13.129,13.129,0,0,1-2.7,1.985.866.866,0,0,0-.555.794,6.019,6.019,0,0,1-.079,1.191,2.655,2.655,0,0,0,.555,2.065c.635.794,1.269,1.509,1.9,2.224a2.669,2.669,0,0,1,.714,1.191,1.351,1.351,0,0,0,.079.556,2.515,2.515,0,0,0,1.666,1.429,13.913,13.913,0,0,0,3.093.476,17.908,17.908,0,0,0,2.062.079h.793a14.174,14.174,0,0,1,.159,1.826,16.322,16.322,0,0,1-.476,3.891,30.844,30.844,0,0,1-2.538,6.829,9.426,9.426,0,0,1-2.062,2.859,23.723,23.723,0,0,1-4.363,3.018,3.394,3.394,0,0,0-1.031.715,16.749,16.749,0,0,0-1.507,1.826,5.356,5.356,0,0,0-1.031,2.7,19.545,19.545,0,0,0-.159,2.224c-.079,1.032-.159,1.985-.159,3.018,0,.318.079.715.079,1.032v2.859l.238,1.191c.079.079.159.079.238.159a33.078,33.078,0,0,1,3.252,3.415,11.808,11.808,0,0,0,1.348,1.429,15.507,15.507,0,0,1,9.2,1.429c3.252,1.509,6.345,4.209,9.994,4.844,4.283.715,5.552-4.05,9.915-3.732a5.682,5.682,0,0,1,1.983.556,3.082,3.082,0,0,1,1.19.159h.079c.079-.079.159-.079.238-.159a.6.6,0,0,0,.159-.318,16.587,16.587,0,0,0,1.428-4.368c.238-.953.4-1.906.635-2.859a18.932,18.932,0,0,0,.4-2.065c.079-1.191.079-2.382.079-3.574a10.145,10.145,0,0,0-.079-1.588c-.079-1.271-.159-2.621-.317-3.891a2.257,2.257,0,0,0-.317-1.032,10.047,10.047,0,0,0-1.586-2.462l-.555-.556a1.128,1.128,0,0,1-.159-.476,7.273,7.273,0,0,1,.079-1.271c.079-1.429.159-2.938.317-4.368l.238-3.812c.079-.874.159-1.747.159-2.7a46.22,46.22,0,0,0-.159-4.685c-.079-1.271-.238-2.621-.317-3.891l-.238-2.144c-.159-1.112-.238-2.224-.476-3.335-.238-1.35-.555-2.7-.873-4.05a2.2,2.2,0,0,1-.079-.715c.079-.715.159-1.429.238-2.224.079-.476.079-.874.159-1.271.555-.159,1.031-.238,1.507-.4,1.11-.4,2.3-.874,3.411-1.35.159-.079.4-.238.555-.318.793-.556,1.507-1.112,2.3-1.747a13.789,13.789,0,0,0,1.19-1.032,10.145,10.145,0,0,0,1.9-3.812,24.383,24.383,0,0,0,.555-3.335c.159-1.032.317-2.065.476-3.018a.6.6,0,0,1,.159-.4,1.192,1.192,0,0,0,.317-.874.492.492,0,0,0-.4-.635,1.585,1.585,0,0,0-1.19.079,9.242,9.242,0,0,1-2.062.794,19.81,19.81,0,0,1-2.062.556,4.176,4.176,0,0,0-.952.238,19.7,19.7,0,0,0-3.569,1.429,15.228,15.228,0,0,0-3.014,1.985c-.555.476-1.11,1.032-1.666,1.509a.682.682,0,0,1-.476.238l-1.666.238a1.9,1.9,0,0,1-1.507-.556l.238-.238c.793-.715,1.586-1.429,2.3-2.144a22.1,22.1,0,0,1,3.331-2.779,8.317,8.317,0,0,1,2.221-1.112,2.837,2.837,0,0,0,.873-.318c1.666-.874,3.252-1.826,4.838-2.779s2.935-1.747,4.363-2.7a7.768,7.768,0,0,0,2.459-2.065c.952-1.271,1.9-2.541,2.855-3.891a3.083,3.083,0,0,0,.714-1.826c.079-.953.159-1.985.159-2.938C174.486,27.8,174.406,26.422,174.406,25.151Z" transform="translate(43.821 135.954)"/>
    <g id="Est_2015" data-name="Est 2015" class="cls-4" transform="translate(164.552 332.345)">
      <rect id="Rectangle_6" data-name="Rectangle 6" class="cls-5" width="645.989" height="404.218" transform="translate(-309.671 -277.934)"/>
    </g>
    <g id="Contracting" class="cls-6" transform="translate(120.943 310.767)">
      <rect id="Rectangle_7" data-name="Rectangle 7" class="cls-5" width="645.989" height="404.218" transform="translate(-266.063 -256.355)"/>
    </g>
    <path id="Path_2" data-name="Path 2" class="cls-2" d="M9.609,201.837H.081v-1.294H1.857V165.619H0v-1.294H9.609c5.895,0,10.417,6.548,10.417,18.19.081,13.1-2.18,19.322-10.417,19.322Zm4.683-21.343c0-5.012-.807-14.875-4.764-14.875h-2.5v34.924h2.5c4.683,0,4.764-12.046,4.764-17.462v-2.587Zm29.8,9.135v12.207H27.455v-1.294h1.776V165.7H27.455v-1.294H44.089v9.459h-1.7v-3.072c0-3.315-2.907-5.093-6.056-5.093H34.48V183c2.261,0,4.522-1.132,4.683-3.4V177.1h1.13v13.258h-1.13v-2.506c-.161-2.264-2.422-3.4-4.683-3.4v16.169H36.5c3.068,0,5.895-1.779,5.895-5.093v-5.821h1.7Zm23.5,0v12.207H50.952v-1.294h1.776V165.7H50.952v-1.294H67.587v9.459h-1.7v-3.072c0-3.315-2.907-5.093-6.056-5.093H57.978V183c2.261,0,4.522-1.132,4.683-3.4V177.1h1.13v13.258h-1.13v-2.506c-.161-2.264-2.422-3.4-4.683-3.4v16.169H60c3.068,0,5.895-1.779,5.895-5.093v-5.821h1.7Zm16.23-5.255H81.8v16.169h1.776v1.294H74.854v-1.294H76.63V165.619H74.854v-1.294H84.3c3.957,0,9.125,2.506,9.125,9.216,0,8.731-3.714,10.833-9.609,10.833Zm3.714-13.582c0-2.587-1.211-5.012-3.634-5.012H81.879V183H83.9c2.5,0,3.634-2.344,3.634-5.5Zm45.3-5.012v36.056h-4.36L117,176.695v23.849h2.18v1.294h-6.541v-1.294h2.18V165.619h-2.18v-1.294h4.926l13,26.517V165.862h-2.18v-1.294h6.46v1.294h-2.019ZM151.888,202.4h-1.131c-6.218,0-9.044-7.923-9.044-19.645,0-10.429,2.745-19,9.044-19h1.131c6.7,0,9.044,8.65,9.044,19C160.932,194.481,158.59,202.4,151.888,202.4Zm3.311-24.981c0-6.548-.484-11.965-3.957-11.965-3.311,0-3.8,5.336-3.8,11.965V187.69c0,8.408.565,13.1,3.957,13.1h.242c2.907,0,3.553-4.527,3.553-13.1ZM186.691,202.4c-3.23,0-5.491-1.455-5.491-5.9V189.63a.607.607,0,0,0-.081-.4c0-1.859-.969-4.851-3.876-4.851h-2.019v16.169h1.13v1.294h-8.236v-1.294H169.9V165.619h-1.857v-1.294h9.044c5.087,0,9.609,2.749,9.609,8.893,0,4.446-1.13,6.872-2.18,8.327a5.848,5.848,0,0,1-2.18,1.859c-.161.081-.242.081-.242.243s.081.243.161.243a8.078,8.078,0,0,1,2.18,1.859,8.559,8.559,0,0,1,2.18,5.821v6.953c0,.97.242,2.021,1.05,2.021a1.073,1.073,0,0,0,.807-.243l.485,1.294c.081.4-.807.808-2.261.808Zm-5.572-30.478c0-2.91-1.211-6.225-3.876-6.225h-2.019v17.22h2.019c2.5,0,3.876-2.749,3.876-6.548v-4.446Zm33.026,1.293-.565-2.344c0-3.315-2.342-5.174-5.491-5.174h-.727v34.763h2.019v1.487h-9.448V200.5h2.019V165.733h-.727c-3.23,0-5.572,1.859-5.572,5.174l-.4,2.344h-1.292v-8.893h21.4v8.893Zm29.715,27.325v1.294h-8.075v-1.294h1.05V185.022H228.2v15.522h1.373v1.294h-8.156v-1.294h1.534V165.571h-1.776v-1.294h8.156v1.294H228.2v17.543h8.64V165.571h-1.292v-1.294h8.075v1.294h-1.534v35.005Z" transform="translate(64.262 102.381)"/>
  </g>
</svg>
