<svg xmlns="http://www.w3.org/2000/svg" viewBox="0 0 301.98633 240.26992"><defs><style>.a{fill:#fff;}.b{fill:#d7a03c;}</style></defs><title>Asset 4</title><path class="a" d="M129.24753,238.81052v1.3788h-5.14816v-6.98941h5.04v1.38939h-3.48089v1.44031h3.13089v1.33h-3.13089v1.4509Zm4.64126-4.40149a.94246.94246,0,0,0-.6152.18665.60019.60019,0,0,0-.22479.49.55063.55063,0,0,0,.27359.48364,4.992,4.992,0,0,0,1.27066.42636,3.57878,3.57878,0,0,1,1.54632.73393,1.82157,1.82157,0,0,1,.54947,1.42972,1.88531,1.88531,0,0,1-.70645,1.52515,2.80547,2.80547,0,0,1-1.85391.58545,4.291,4.291,0,0,1-2.99094-1.2303l.93125-1.1391a3.30353,3.30353,0,0,0,2.08938.98849,1.09819,1.09819,0,0,0,.67456-.18455.593.593,0,0,0,.24607-.5006.58179.58179,0,0,0-.261-.4985,3.40826,3.40826,0,0,0-1.02878-.37545,4.48274,4.48274,0,0,1-1.786-.75514,1.78348,1.78348,0,0,1-.56421-1.45941,1.80942,1.80942,0,0,1,.71475-1.53575,2.87218,2.87218,0,0,1,1.78391-.53879,4.26078,4.26078,0,0,1,1.4.23969,3.7618,3.7618,0,0,1,1.22184.67881l-.79117,1.14118a3.07559,3.07559,0,0,0-1.8794-.69147Zm8.02875.14v5.6403h-1.55905V234.549h-1.9812v-1.34911h5.52151V234.549Zm4.78552,5.46636a.89415.89415,0,1,1,.25443-.62579.84978.84978,0,0,1-.25443.62579Zm10.96445.17394h-4.92966V239.029l2.05118-2.1a9.26314,9.26314,0,0,0,.88458-1.00334,1.26949,1.26949,0,0,0,.26523-.72545.79947.79947,0,0,0-.23132-.58544.78784.78784,0,0,0-.58966-.23546c-.43909,0-.857.314-1.24936.93971l-1.24948-.73819a3.88084,3.88084,0,0,1,1.07339-1.15181,2.64478,2.64478,0,0,1,1.49121-.3882,2.3932,2.3932,0,0,1,1.58878.57485,1.9263,1.9263,0,0,1,.68509,1.56333,2.10607,2.10607,0,0,1-.27353,1.03516,6.76053,6.76053,0,0,1-1.01611,1.26636l-1.26,1.30881h2.75967v1.4Zm7.16129-.90367a2.88418,2.88418,0,0,1-4.34,0,5.15641,5.15641,0,0,1,0-5.26059,2.88424,2.88424,0,0,1,4.34,0,5.17035,5.17035,0,0,1,0,5.26059Zm-1.14127-4.31664a1.14981,1.14981,0,0,0-2.05972,0,4.51111,4.51111,0,0,0,0,3.38121,1.14814,1.14814,0,0,0,2.05972,0,4.48344,4.48344,0,0,0,0-3.38121Zm5.06128,5.22031v-5.65939h-1.33v-1.33h2.82965v6.98941Zm5.68906-4.46941a2.57178,2.57178,0,0,1,.71063-.08911,2.62079,2.62079,0,0,1,1.73938.60881,2.036,2.036,0,0,1,.72961,1.64606,2.18889,2.18889,0,0,1-.75509,1.7097,2.69444,2.69444,0,0,1-1.86454.67455,3.06211,3.06211,0,0,1-2.36941-1.05l.81885-1.1391c.06149.05941.14.1315.23965.21851a3.46185,3.46185,0,0,0,.55154.34573,1.65747,1.65747,0,0,0,.79966.21425,1.12414,1.12414,0,0,0,.71066-.23968.84425.84425,0,0,0,.30969-.7106.85751.85751,0,0,0-.33523-.72336,1.39372,1.39372,0,0,0-.86542-.25666,2.6476,2.6476,0,0,0-1.23032.38181l-.649-.7v-3.4109h4.219V234.549h-2.75964v1.17089Z"/><path class="a" d="M11.89575,198.18932H.0658v-1.62486H2.276v-43.1603H0v-1.627H11.89575c7.34577,0,12.93512,8.12641,12.93512,22.49125,0,16.25061-2.73,23.92091-12.93512,23.92091Zm5.78665-26.39c0-6.17485-.97577-18.39516-5.85031-18.39516H8.77545v43.1603h3.05664c5.78455,0,5.85031-14.88454,5.85031-21.64484v-3.1203ZM54.6,183.04387v15.14545H33.99457v-1.62486h2.2102V153.46782h-2.2102V151.843H54.6v11.70059h-2.0788v-3.76941c0-4.09606-3.57642-6.30634-7.47519-6.30634H42.70633v21.38605c2.79367,0,5.58945-1.4297,5.78458-4.22546v-3.12029h1.42965v16.3821H48.49091v-3.05666c-.19513-2.79364-2.99091-4.22545-5.78458-4.22545v19.95635h2.46912c3.83511,0,7.34576-2.2103,7.34576-6.30425v-7.21634Zm29.0563,0v15.14545H63.04883v-1.62486H65.259V153.46782h-2.2102V151.843H83.65631v11.70059H81.57547v-3.76941c0-4.09606-3.57425-6.30634-7.47516-6.30634H71.76056v21.38605c2.79367,0,5.58945-1.4297,5.78454-4.22546v-3.12029h1.42969v16.3821H77.5451v-3.05666c-.19509-2.79364-2.99087-4.22545-5.78454-4.22545v19.95635h2.46912c3.83514,0,7.34579-2.2103,7.34579-6.30425v-7.21634Zm20.14948-6.49942h-2.47123v20.02h2.21024v1.5612h-10.92v-1.5612h2.21032v-43.226H92.62482v-1.56125h11.70062c4.94034,0,11.31033,3.12035,11.31033,11.44187,0,10.79059-4.55,13.32542-11.83,13.32542Zm4.55-16.77029c0-3.186-1.49548-6.2406-4.55-6.2406h-2.47123v21.25456h2.47123c3.11816,0,4.55-2.85941,4.55-6.824v-8.19Zm56.159-6.177v44.59215h-5.39633l-14.16965-31.13516v29.5103H147.613v1.62486h-8.06061v-1.62486h2.66635v-43.226h-2.66635v-1.62484h6.11117l16.12119,32.82576V153.59717h-2.66632v-1.62486h7.99478v1.62486ZM188.107,198.8405h-1.42971c-7.734,0-11.24454-9.81694-11.24454-24.31118,0-12.87151,3.44476-23.467,11.24454-23.467h1.366c8.31949,0,11.24457,10.727,11.24457,23.467,0,14.56-2.92508,24.31118-11.18085,24.31118Zm4.03031-30.81268c0-8.12425-.64911-14.75516-4.87457-14.75516-4.09394,0-4.67945,6.63091-4.67945,14.75516v12.67635c0,10.4003.71488,16.18484,4.94034,16.18484h.25879c3.64,0,4.35489-5.58938,4.35489-16.18484V168.02782Zm39.00055,30.81268c-4.03031,0-6.76032-1.75634-6.76032-7.28v-8.51665c0-.19516,0-.39032-.06579-.45395,0-2.3397-1.23441-6.04547-4.80869-6.04547H217.0318v20.02h1.42975v1.62486H208.25629v-1.62486h2.21032v-43.1603h-2.27386v-1.627h11.24451c6.30633,0,11.89578,3.447,11.89578,10.98581,0,5.46-1.36606,8.45089-2.66425,10.27091a6.69826,6.69826,0,0,1-2.66638,2.276c-.19513.06366-.25882.12941-.25882.32454a.29964.29964,0,0,0,.19306.32457,11.79345,11.79345,0,0,1,2.73214,2.33969,10.695,10.695,0,0,1,2.73,7.21635v8.58031c0,1.23456.25876,2.46909,1.29819,2.46909a1.65309,1.65309,0,0,0,1.04157-.25879l.649,1.55911c-.32446.51968-1.42965.97572-3.24966.97572Zm-6.82611-37.63664c0-3.64-1.49326-7.6703-4.80869-7.6703H217.0318v21.25456h2.47125c3.05445,0,4.80869-3.44485,4.80869-8.12425v-5.46Zm40.88638,1.55911-.71484-2.92515c0-4.094-2.92511-6.43366-6.826-6.43366h-.91v43.0309h2.47119v1.75426H247.51782v-1.75426h2.53488v-43.0309h-.91c-3.96454,0-6.88971,2.33971-6.88971,6.43366l-.52176,2.92515h-1.62494V151.77716h26.52152V162.763Zm36.78821,33.86724v1.55911h-10.01v-1.55911h1.30035V177.38872H282.61755v19.24149H284.306v1.55911h-10.1394v-1.55911h1.9494v-43.2918h-2.21027v-1.56125H284.0473v1.56125h-1.42975V175.049h10.65912V153.33841h-1.55908v-1.56125h10.01v1.56125H299.7782v43.2918Z"/><path class="a" d="M78.63544,210.08081a3.40416,3.40416,0,0,0-2.75965-1.38089,3.21753,3.21753,0,0,0-2.257.86335,3.00071,3.00071,0,0,0-.93762,2.32486,3.17217,3.17217,0,0,0,.88455,2.346,2.919,2.919,0,0,0,2.14667.88666,3.4522,3.4522,0,0,0,2.81909-1.36606l1.49973,1.54427a5.65742,5.65742,0,0,1-8.19641.4815,5.54217,5.54217,0,0,1,.02975-7.75514,5.38311,5.38311,0,0,1,3.90723-1.56122,5.534,5.534,0,0,1,4.31876,1.96636l-1.45511,1.65029Zm16.93576,5.6615a5.71118,5.71118,0,0,1-7.82944,0,5.48494,5.48494,0,0,1,0-7.72545,5.71131,5.71131,0,0,1,7.82944,0,5.4848,5.4848,0,0,1,0,7.72545Zm-1.69486-6.24694a2.96589,2.96589,0,0,0-4.42483,0,3.621,3.621,0,0,0,0,4.77694,2.98292,2.98292,0,0,0,4.42483,0,3.62107,3.62107,0,0,0,0-4.77694Zm17.6994,7.69364-4.99542-6.56939V217.189h-2.33975V206.706h2.19119l5.144,6.74971V206.706h2.33973V217.189ZM126.036,208.7296V217.189h-2.33969V208.7296h-2.9697V206.706h8.27912v2.02365Zm16.28879,4.71123,2.65579,3.74818H142.1l-2.32489-3.34515h-1.6185V217.189h-2.34183V206.706H139.79a5.69939,5.69939,0,0,1,3.4873.82306,3.18478,3.18478,0,0,1,1.04358,2.65576,3.08976,3.08976,0,0,1-1.99606,3.25606Zm-.84-4.41a2.87,2.87,0,0,0-1.57391-.316h-1.75424v3.10544h1.70968a2.51332,2.51332,0,0,0,1.63547-.3903,1.58973,1.58973,0,0,0,.43488-1.23664,1.32171,1.32171,0,0,0-.45188-1.16246Zm17.80554,8.1582-.97369-2.26335h-4.39511l-.97574,2.26335h-2.49033l4.53089-10.48306h2.26336l4.53086,10.48306Zm-3.16485-7.36485-1.31943,3.046h2.624l-1.30453-3.046Zm19.71029.25665a3.41,3.41,0,0,0-2.75973-1.38089,3.21422,3.21422,0,0,0-2.257.86335,3.00073,3.00073,0,0,0-.9375,2.32486,3.17235,3.17235,0,0,0,.88446,2.346,2.91444,2.91444,0,0,0,2.14456.88666,3.45213,3.45213,0,0,0,2.81913-1.36606l1.50183,1.54427a5.65985,5.65985,0,0,1-8.19846.4815,5.54214,5.54214,0,0,1,.02966-7.75514,5.38346,5.38346,0,0,1,3.90732-1.56122,5.53831,5.53831,0,0,1,4.32083,1.96636l-1.45511,1.65029ZM188.616,208.7296V217.189h-2.33969V208.7296h-2.97174V206.706h8.28118v2.02365Zm9.77878,8.45941V206.706h2.33981V217.189Zm17.35577,0-4.99542-6.56939V217.189h-2.33969V206.706h2.18914l5.146,6.74971V206.706h2.33978V217.189Zm19.18426-5.33909v3.72058a5.50245,5.50245,0,0,1-4.32092,1.73941,5.33389,5.33389,0,0,1-3.87756-1.52939,5.5448,5.5448,0,0,1,.03183-7.75514,5.31715,5.31715,0,0,1,3.85425-1.56122,5.7089,5.7089,0,0,1,3.92218,1.48485l-1.21561,1.75636a4.62887,4.62887,0,0,0-1.296-.84851,3.4923,3.4923,0,0,0-1.28336-.2312,3.07307,3.07307,0,0,0-2.25061.90575,3.62258,3.62258,0,0,0-.036,4.77061,2.82427,2.82427,0,0,0,2.09153.893,4.0264,4.0264,0,0,0,2.02578-.46454v-2.8806Z"/><rect class="a" x="8.96817" y="135.71337" width="93.7" height="2"/><rect class="a" x="10.66817" y="211.21337" width="52.6" height="2"/><rect class="a" x="245.46817" y="211.21337" width="52.49998" height="2"/><rect class="a" x="200.96817" y="135.71337" width="93.59999" height="2"/><path class="b" d="M190.33786,27.90564a10.23661,10.23661,0,0,0-.28755-2.39621c-.38339-1.53358-.76679-3.06716-1.246-4.50489-.67093-2.10867-1.34187-4.21734-2.10866-6.326a16.53418,16.53418,0,0,0-1.53359-3.5464c-.5751-.95848-1.14392-2.01274-1.77961-2.87546a31.7445,31.7445,0,0,0-4.25884-4.12149c-.09585-.09584-.19169-.09584-.28755-.19169-.86263-.57509-1.82112-1.246-2.68376-1.82113s-2.211-.76035-3.07359-1.43129c-1.11235-.97041-2.77317-.86907-2.19809-.00644a10.42883,10.42883,0,0,0,2.01283,2.49207c.76679.67094,1.43773,1.43773,2.20452,2.20452s1.34188,1.43773,2.01283,2.10867a17.76018,17.76018,0,0,1,2.68376,2.68376c.5751.86263,1.246,1.72527,1.917,2.58791a13.42032,13.42032,0,0,1,.95848,1.53358,24.527,24.527,0,0,1,1.62943,4.12149,11.75122,11.75122,0,0,1,.76679,3.163c0,.28755.09585.57509-.09586.86264a.35467.35467,0,0,1-.28755-.09585,1.71577,1.71577,0,0,1-.47924-.67094c-.5751-.95849-1.15018-1.917-1.72528-2.97131-1.15018-2.01282-2.30036-4.12149-3.45055-6.13431a31.228,31.228,0,0,0-2.30036-3.83395,6.708,6.708,0,0,1-.5751-.86263c-.09586.09585-.1917.19169-.1917.28754a7.831,7.831,0,0,0-.09585,2.58792,18.92915,18.92915,0,0,0,.76679,2.49206c.5751,1.53358,1.15018,3.06716,1.82112,4.60073a6.10407,6.10407,0,0,1,.19169.67094c-.28755-.09585-.38338-.19169-.57509-.19169-1.15018-.47925-2.39622-.86264-3.5464-1.34188-1.62942-.5751-3.163-1.246-4.79243-1.82113-1.43773-.57509-2.87546-1.246-4.409-1.82112-1.05434-.3834-2.20452-.76679-3.3547-1.15018-1.62943-.5751-3.35471-1.246-4.98413-1.72528a51.52031,51.52031,0,0,1-4.88828-1.917,6.8722,6.8722,0,0,0-2.39622-.67094c-.19169,0-.47924-.09585-.76679-.09585.28755.95849.47924,1.82112,1.34187,2.20452a.09585.09585,0,0,1,.09586.09584h0a28.10256,28.10256,0,0,0,4.79243,3.25885c1.34187.76679,2.7796,1.53358,4.12149,2.39621a20.12844,20.12844,0,0,0,2.49207,1.246,27.44967,27.44967,0,0,1,4.50488,2.10867,34.708,34.708,0,0,0,3.83395,1.82112,33.47038,33.47038,0,0,1,3.73809,1.82112l2.58791,1.43773a30.78823,30.78823,0,0,1,2.87546,2.01282c1.34187,1.15019,2.7796,2.39622,4.21733,3.45055a1.15972,1.15972,0,0,1,.47924.47924,10.93568,10.93568,0,0,0,1.05434,1.05434,2.04157,2.04157,0,0,1,.67094,1.43773,4.668,4.668,0,0,0,.09585,1.15018,4.38021,4.38021,0,0,1-1.05434,3.5464l-2.01282,2.01282A11.50075,11.50075,0,0,1,181.6156,40.366a26.35808,26.35808,0,0,1-2.68377,1.82113c-.76679.47924-1.43773,1.15018-2.20452,1.62943a21.19345,21.19345,0,0,1-3.25884,1.72527c-1.246.57509-2.58791,1.05433-3.83395,1.62943a3.51764,3.51764,0,0,1-2.7796.28754,2.20449,2.20449,0,0,1-1.34188-.86264,16.38833,16.38833,0,0,1-1.05434-1.34188,3.99677,3.99677,0,0,1-.76679-1.72527,3.25854,3.25854,0,0,1-.09585-.95849c-.09586-.76679-.32883-.63946-.42467-1.40625-.09585-1.34188-.05458-3.67373-.05458-5.01561a43.64061,43.64061,0,0,0-.38339-5.08,1.1789,1.1789,0,0,0-.38339-.76679.46959.46959,0,0,0-.28754-.09585,1.409,1.409,0,0,0-.5751.47924,5.0418,5.0418,0,0,0-.38339,1.62943c-.09585,1.246-.09585,2.58792-.09585,3.92979.01559.29086.00665,1.917.00665,2.49207,0,1.917.20967,3.83394.20967,5.75092a2.98339,2.98339,0,0,0,.81871,2.218,3.92419,3.92419,0,0,1,.659,2.61587,9.99224,9.99224,0,0,1-.39937,2.39622c-.46547,1.35235-1.56681,1.23787-2.59514,2.23187a14.22385,14.22385,0,0,0-1.28739,1.08136,6.61357,6.61357,0,0,1-1.72528,1.53358,1.8499,1.8499,0,0,1-.95849.28755H154.107c-1.62943.09584-3.3547.09584-4.98413.19169a3.46,3.46,0,0,1-2.39621-.57509.90094.90094,0,0,1-.47924-.86264c.09585-1.246.09585-2.39621.09585-3.64224V49.37572c.09585-1.53357.19169-2.9713.38339-4.50488.09585-.95849.19169-1.82113.28755-2.77961s.19169-2.01282.28755-2.97131.19169-2.01282.28754-3.06715a8.24212,8.24212,0,0,0,.09586-1.53358h-.1917c-.09585,0-.09585,0-.19169.09585a2.57833,2.57833,0,0,0-1.43773,1.72527c-.28755,1.246-.5751,2.39622-.86263,3.64225a2.655,2.655,0,0,0-.09586.86264c-.19169,1.05433-.38338,2.20451-.47924,3.25885a43.12961,43.12961,0,0,1-.76679,4.88828.95847.95847,0,0,1-1.04479.86359l-.00955-.00095a3.25925,3.25925,0,0,1-.95849-.09585,14.89494,14.89494,0,0,1-3.83394-1.62943c-.95849-.57509-1.917-1.15018-2.87546-1.82112-.5751-.3834-1.15018-.76679-1.05434-1.72528v-.0575a14.21436,14.21436,0,0,1,.09585-4.50489A35.63784,35.63784,0,0,1,135.8,33.79074,36.98693,36.98693,0,0,0,137.33356,29.19c.47924-1.917,1.05434-3.73809,1.53358-5.65507l1.15018-5.17582v-.47924l-.19169.19169a18.43141,18.43141,0,0,0-1.72528,2.97131,40.71676,40.71676,0,0,0-2.01283,4.69658,26.57717,26.57717,0,0,1-.95849,2.49207c-.76679,1.72527-1.43772,3.3547-2.20452,4.98412a1.32258,1.32258,0,0,1-.38338.28755c-.38339.09585-.5751-.09585-.7668-.3834a.574.574,0,0,0-.57509-.28754c-.19171,0-.38339.28754-.47925.57509v.38339c0,.76679.09586,1.43773.09586,2.20452a31.05441,31.05441,0,0,1-.1917,4.21734,5.42494,5.42494,0,0,1-.76679,2.39622.95848.95848,0,0,1-1.246.47924,1.72524,1.72524,0,0,1-.86264-.57509,10.93671,10.93671,0,0,1-1.05434-1.05433,15.27014,15.27014,0,0,1-1.246-1.246,2.63581,2.63581,0,0,1-.76679-1.43773,27.078,27.078,0,0,1-.1917-2.77961,25.79339,25.79339,0,0,1,.57509-6.03847c.1917-1.05433.57509-2.10867.86264-3.163s.47925-2.01282.86264-3.06716c.09585-.28754.1917-.47924.28755-.76678a24.77772,24.77772,0,0,0,.86264-3.83395,64.63022,64.63022,0,0,1,1.62945-7.18865c.47924-1.72527.86263-3.45055,1.246-5.17582a2.655,2.655,0,0,0,.09585-.86264.72839.72839,0,0,1-.38339.09585,4.66779,4.66779,0,0,0-2.10866,2.58791c-.28755.67094-.57509,1.43773-.86264,2.10867a19.40954,19.40954,0,0,0-1.34189,3.25885c-.57509,1.72528-1.15018,3.5464-1.62942,5.27168-.28755.95848-.67094,1.917-.95848,2.87546-.47925,1.72527-1.05434,3.3547-1.53358,5.08-.28755,1.15019-.67094,2.20452-.86264,3.3547-.09585.57509-.09585,1.15019-.19169,1.72528a25.10817,25.10817,0,0,0-.09587,2.68376v1.246a1.32273,1.32273,0,0,1-.57509,1.05433.58468.58468,0,0,1-.7668,0,3.20136,3.20136,0,0,1-1.34188-2.30036c-.09584-.3834-.09584-.76679-.19169-1.05434a10.04464,10.04464,0,0,1-.09585-2.39621,30.14507,30.14507,0,0,1,.28755-4.21734,6.76676,6.76676,0,0,1,.57509-2.30037,9.67162,9.67162,0,0,0,.67094-1.43773c.28755-.67094.67093-1.43773.95848-2.10867l1.43773-2.30036a4.23642,4.23642,0,0,0,.57509-1.53358,10.544,10.544,0,0,0,.1917-1.72528v-.76678c0-.1917-.09585-.3834-.1917-.3834a4.15106,4.15106,0,0,1-.47924.09585.21087.21087,0,0,0-.19169.1917,18.6899,18.6899,0,0,0-1.72528,2.39621c-.09585.28755-.28755.3834-.67094.28755v-.95849a7.56244,7.56244,0,0,1,.47924-2.87546c.28755-.86263.47925-1.62942.76679-2.49206a11.27134,11.27134,0,0,0,.28755-2.01282,1.02563,1.02563,0,0,0-.47924.28754,7.10269,7.10269,0,0,0-1.15018,1.246,20.39722,20.39722,0,0,0-1.72528,3.92979c-.38339,1.15018-.76679,2.39622-1.15018,3.64225a9.585,9.585,0,0,0-.38339,2.30036,18.39453,18.39453,0,0,1-.28755,2.10867,1.98412,1.98412,0,0,1-.57509.95849,5.62636,5.62636,0,0,0-1.917,2.77961c0,.09585-.09584.1917-.09584.28754-.47925,1.246-.95849,2.49207-1.34188,3.834a9.22064,9.22064,0,0,0-.1917,3.25885,13.14119,13.14119,0,0,0,.76679,3.3547,3.834,3.834,0,0,0,.95849,1.72528,9.037,9.037,0,0,0,.95849.95848,19.71589,19.71589,0,0,0,2.87545,2.77962c.57509.38339,1.05434.76678,1.53358,1.15018a15.2579,15.2579,0,0,0,2.10867,1.246,8.493,8.493,0,0,1,1.62942.76679,45.68061,45.68061,0,0,0,4.98412,2.10867,21.729,21.729,0,0,1,4.79244,2.20452,15.50872,15.50872,0,0,0,1.72527.95848l2.87546,1.43773c.86263.47925,1.72528,1.05434,2.58791,1.62943a2.24292,2.24292,0,0,1,.67094.67094,8.502,8.502,0,0,0,1.34187,2.39622c.1917.19169.09586.57509-.19169.86263a.46008.46008,0,0,1-.65032.02063l-.02062-.02063c-.19169-.19169-.47924-.38339-.5751-.67094a20.28112,20.28112,0,0,0-1.15018-1.917,9.75753,9.75753,0,0,0-3.163-2.77961c-1.53359-.86264-3.06716-1.62943-4.60074-2.49206a11.50153,11.50153,0,0,0-3.163-1.246l-1.15018-.28755a4.6268,4.6268,0,0,0-2.28748-.32479c-.62294-.04785-.75508.51262-.65923.99186a26.96319,26.96319,0,0,0-.015,2.78348,18.57282,18.57282,0,0,0,1.22806,3.911,16.86435,16.86435,0,0,0,1.70294,3.50009c.57509.86264,1.08579,1.98137,1.66088,2.844a9.11293,9.11293,0,0,0,1.14943,1.53434c1.05434.86263,2.10867,1.82112,3.25885,2.68376a2.10385,2.10385,0,0,0,.38339.28755,3.96166,3.96166,0,0,0,1.05434.38339c.67094.28755,1.14967.16488,1.81188.472a4.762,4.762,0,0,1,1.2855.60892c.41361.4136.73784.45212,1.16763.88192.66031.66031-.8763,2.1495-1.16264,2.43584-.82218.82218-2.12121,2.00251-2.98193,2.77144a29.98923,29.98923,0,0,1-2.84163,2.16505c-1.10136.78736-1.04435.71193-2.12558,1.52671a1.99282,1.99282,0,0,0-.76873,1.64246,10.49333,10.49333,0,0,1,0,1.5875,3.203,3.203,0,0,0,.3145,2.4141,8.00362,8.00362,0,0,0,1.37324,1.85028c.39392.41016.98486,1.36825,1.387,1.77038a11.34392,11.34392,0,0,0,2.16258,1.93706,7.84916,7.84916,0,0,0,3.25005,1.09627c.83007.05657,1.38265.03382,2.21015.03382.22083,0,.77647.07964,1.03156.11818,2.1287.3216,2.45723,1.63728,2.4735,2.37549a31.64932,31.64932,0,0,1-.71887,5.96169c-.69282,3.83394-.32626,3.42636-3.3547,6.54965-1.55846,1.60727-3.47316,2.89559-4.51352,3.87877a28.66888,28.66888,0,0,1-5.27167,3.64225,4.10229,4.10229,0,0,0-1.246.86264,20.22453,20.22453,0,0,0-1.82112,2.20452,6.46016,6.46016,0,0,0-1.246,3.25885,23.55919,23.55919,0,0,0-.19169,2.68377c-.09585,1.246-.19169,2.39621-.19169,3.64225,0,.38338.09584.86263.09584,1.246a11.86431,11.86431,0,0,1,1.12687,2.7827,22.48985,22.48985,0,0,0,1.03337,2.10559,12.38358,12.38358,0,0,0,1.84209,3.02877,7.9977,7.9977,0,0,0,2.57593,2.13416c3.67857,1.09772,6.26238-1.45966,9.70467.23962,3.11508,2.2764,8.11119,4.98412,12.52023,5.75091,5.17582.86264,9.238-4.362,12.93956-3.11508.83291.076,1.69732-.639,3.09511-.15974,1.298-.43931,5.33635-3.62813,6.39094-4.983a18.74323,18.74323,0,0,0,2.07568-2.82466c.53228-1.44144,2.3056-4.17464,2.11391-5.70822-.025-.44027-1.10829-6.67347-1.33513-7.05163A54.103,54.103,0,0,0,175.681,113.46c-.31222-.41672-1.51693-1.75723-1.51693-1.75723-.10631-.17484-1.43968-.93636-1.45953-1.14-.013-.513-.39762-2.06813-.49521-2.57194-.45555-2.3517-1.165-3.18912-.97334-4.9144v-1.80822a15.83958,15.83958,0,0,0-.06719-2.56487c-.19287-1.88706-.2797-3.41416-.4393-5.29472-.09586-1.53358-.71148-3.163-.80732-4.69659l-.28755-2.58791c-.19169-1.34188-.28755-2.68376-.57509-4.02564-.28755-1.62942-.56345-2.80166-.94685-4.43109a6.26592,6.26592,0,0,1-.20335-1.31982c.09586-.86264.1917-1.72528.28755-2.68377.09585-.57509.06743-1.0609.19169-1.53357a3.35882,3.35882,0,0,1,1.26777-2.28647c1.87189-1.87189,2.71564-2.01092,3.99353-3.48434a19.62608,19.62608,0,0,0,2.19154-2.94036,13.12309,13.12309,0,0,0,1.01839-2.66578c.291-.90614.61706-1.96633.79375-2.57594a30.9097,30.9097,0,0,0,.86863-4.20835,19.6697,19.6697,0,0,0-.15508-3.04986c-.20018-1.39811-.54882-1.48934-1.19642-1.48934-.6151.14165-.51841-.49907.41932-1.16586,1.82191-1.29552,3.433-2.12652,5.27168-3.25886A9.38357,9.38357,0,0,0,185.833,42.513c1.15018-1.53358,2.30036-3.06716,3.45056-4.69659a3.719,3.719,0,0,0,.86263-2.20451c.09585-1.15019.19169-2.39622.19169-3.5464C190.43371,31.107,190.33786,29.43922,190.33786,27.90564Z"/></svg>