<svg xmlns="http://www.w3.org/2000/svg" viewBox="0 0 301.98633 243.37083"><defs><style>.a{fill:#fff;}.b{fill:#d7a03c;}</style></defs><title>Asset 3</title><path class="a" d="M129.24753,241.91144v1.3788h-5.14816v-6.98941h5.04v1.38938h-3.48089v1.44031h3.13089v1.33h-3.13089v1.4509Zm4.64126-4.40149a.94251.94251,0,0,0-.6152.18664.60019.60019,0,0,0-.22479.49.55064.55064,0,0,0,.27359.48365,4.99238,4.99238,0,0,0,1.27066.42636,3.57855,3.57855,0,0,1,1.54632.73393,1.82155,1.82155,0,0,1,.54947,1.42972,1.88529,1.88529,0,0,1-.70645,1.52514,2.80547,2.80547,0,0,1-1.85391.58545,4.291,4.291,0,0,1-2.99094-1.2303l.93125-1.1391a3.30355,3.30355,0,0,0,2.08938.9885,1.09813,1.09813,0,0,0,.67456-.18456.593.593,0,0,0,.24607-.50059.58179.58179,0,0,0-.261-.49851,3.4086,3.4086,0,0,0-1.02878-.37544,4.48288,4.48288,0,0,1-1.786-.75514,1.78349,1.78349,0,0,1-.56421-1.45941,1.80942,1.80942,0,0,1,.71475-1.53575,2.87218,2.87218,0,0,1,1.78391-.53879,4.26077,4.26077,0,0,1,1.4.23968,3.76182,3.76182,0,0,1,1.22184.67882l-.79117,1.14117a3.07564,3.07564,0,0,0-1.8794-.69146Zm8.02875.14v5.64031h-1.55905v-5.64031h-1.9812v-1.3491h5.52151v1.3491Zm4.78552,5.46637a.89415.89415,0,1,1,.25443-.62579.84978.84978,0,0,1-.25443.62579Zm10.96445.17394h-4.92966v-1.16031l2.05118-2.1a9.26506,9.26506,0,0,0,.88458-1.00334,1.26952,1.26952,0,0,0,.26523-.72545.79949.79949,0,0,0-.23132-.58545.78788.78788,0,0,0-.58966-.23546c-.43909,0-.857.314-1.24936.93972l-1.24948-.73819a3.88084,3.88084,0,0,1,1.07339-1.15181,2.64478,2.64478,0,0,1,1.49121-.3882,2.39319,2.39319,0,0,1,1.58878.57484,1.92632,1.92632,0,0,1,.68509,1.56334,2.10609,2.10609,0,0,1-.27353,1.03516,6.76053,6.76053,0,0,1-1.01611,1.26635l-1.26,1.30881h2.75967v1.4Zm7.16129-.90368a2.88418,2.88418,0,0,1-4.34,0,5.15641,5.15641,0,0,1,0-5.26059,2.88426,2.88426,0,0,1,4.34,0,5.17035,5.17035,0,0,1,0,5.26059Zm-1.14127-4.31663a1.14981,1.14981,0,0,0-2.05972,0,4.51111,4.51111,0,0,0,0,3.38121,1.14814,1.14814,0,0,0,2.05972,0,4.48344,4.48344,0,0,0,0-3.38121Zm5.06128,5.22031v-5.6594h-1.33v-1.33h2.82965v6.98941Zm5.68906-4.46941a2.57178,2.57178,0,0,1,.71063-.08911,2.62074,2.62074,0,0,1,1.73938.60881,2.03594,2.03594,0,0,1,.72961,1.64606,2.18891,2.18891,0,0,1-.75509,1.7097,2.69448,2.69448,0,0,1-1.86454.67454,3.06213,3.06213,0,0,1-2.36941-1.05l.81885-1.1391c.06149.0594.14.1315.23965.21851a3.46185,3.46185,0,0,0,.55154.34573,1.65758,1.65758,0,0,0,.79966.21425,1.12409,1.12409,0,0,0,.71066-.23969.84423.84423,0,0,0,.30969-.7106.85752.85752,0,0,0-.33523-.72336,1.39378,1.39378,0,0,0-.86542-.25665,2.64749,2.64749,0,0,0-1.23032.38181l-.649-.7v-3.4109h4.219v1.3491h-2.75964v1.1709Z"/><path class="a" d="M11.89575,201.29024H.0658v-1.62487H2.276V156.50508H0v-1.627H11.89575c7.34577,0,12.93512,8.1264,12.93512,22.49124,0,16.25061-2.73,23.92092-12.93512,23.92092Zm5.78665-26.39c0-6.17485-.97577-18.39516-5.85031-18.39516H8.77545v43.16029h3.05664c5.78455,0,5.85031-14.88453,5.85031-21.64483v-3.1203ZM54.6,186.14479v15.14545H33.99457v-1.62487h2.2102V156.56874h-2.2102v-1.62485H54.6v11.70059h-2.0788v-3.76941c0-4.096-3.57642-6.30633-7.47519-6.30633H42.70633v21.38605c2.79367,0,5.58945-1.42971,5.78458-4.22547V170.609h1.42965v16.38209H48.49091v-3.05665c-.19513-2.79364-2.99091-4.22545-5.78458-4.22545v19.95634h2.46912c3.83511,0,7.34576-2.21029,7.34576-6.30424v-7.21634Zm29.0563,0v15.14545H63.04883v-1.62487H65.259V156.56874h-2.2102v-1.62485H83.65631v11.70059H81.57547v-3.76941c0-4.096-3.57425-6.30633-7.47516-6.30633H71.76056v21.38605c2.79367,0,5.58945-1.42971,5.78454-4.22547V170.609h1.42969v16.38209H77.5451v-3.05665c-.19509-2.79364-2.99087-4.22545-5.78454-4.22545v19.95634h2.46912c3.83514,0,7.34579-2.21029,7.34579-6.30424v-7.21634Zm20.14948-6.49942h-2.47123v20.02h2.21024v1.56121h-10.92v-1.56121h2.21032v-43.226H92.62482v-1.56125h11.70062c4.94034,0,11.31033,3.12035,11.31033,11.44186,0,10.79059-4.55,13.32543-11.83,13.32543Zm4.55-16.7703c0-3.186-1.49548-6.2406-4.55-6.2406h-2.47123V177.889h2.47123c3.11816,0,4.55-2.85941,4.55-6.824v-8.19Zm56.159-6.177v44.59215h-5.39633l-14.16965-31.13517v29.5103H147.613v1.62487h-8.06061v-1.62487h2.66635v-43.226h-2.66635v-1.62485h6.11117l16.12119,32.82576V156.69809h-2.66632v-1.62486h7.99478v1.62486ZM188.107,201.94142h-1.42971c-7.734,0-11.24454-9.81694-11.24454-24.31119,0-12.8715,3.44476-23.467,11.24454-23.467h1.366c8.31949,0,11.24457,10.727,11.24457,23.467,0,14.56-2.92508,24.31119-11.18085,24.31119Zm4.03031-30.81268c0-8.12426-.64911-14.75516-4.87457-14.75516-4.09394,0-4.67945,6.6309-4.67945,14.75516v12.67634c0,10.4003.71488,16.18485,4.94034,16.18485h.25879c3.64,0,4.35489-5.58939,4.35489-16.18485V171.12874Zm39.00055,30.81268c-4.03031,0-6.76032-1.75635-6.76032-7.28v-8.51665c0-.19516,0-.39032-.06579-.45395,0-2.33971-1.23441-6.04547-4.80869-6.04547H217.0318v20.02h1.42975v1.62487H208.25629v-1.62487h2.21032V156.50508h-2.27386v-1.627h11.24451c6.30633,0,11.89578,3.447,11.89578,10.98581,0,5.46-1.36606,8.45088-2.66425,10.2709a6.69821,6.69821,0,0,1-2.66638,2.276c-.19513.06366-.25882.12941-.25882.32454a.29963.29963,0,0,0,.19306.32456,11.79373,11.79373,0,0,1,2.73214,2.3397,10.695,10.695,0,0,1,2.73,7.21635v8.58031c0,1.23456.25876,2.46908,1.29819,2.46908a1.653,1.653,0,0,0,1.04157-.25879l.649,1.55912c-.32446.51968-1.42965.97572-3.24966.97572Zm-6.82611-37.63664c0-3.64-1.49326-7.67031-4.80869-7.67031H217.0318V177.889h2.47125c3.05445,0,4.80869-3.44486,4.80869-8.12426v-5.46Zm40.88638,1.55911-.71484-2.92516c0-4.09394-2.92511-6.43365-6.826-6.43365h-.91V199.536h2.47119v1.75426H247.51782V199.536h2.53488v-43.0309h-.91c-3.96454,0-6.88971,2.33971-6.88971,6.43365l-.52176,2.92516h-1.62494V154.87808h26.52152v10.98581Zm36.78821,33.86723v1.55912h-10.01v-1.55912h1.30035V180.48964H282.61755v19.24148H284.306v1.55912h-10.1394v-1.55912h1.9494V156.43933h-2.21027v-1.56125H284.0473v1.56125h-1.42975v21.7106h10.65912v-21.7106h-1.55908v-1.56125h10.01v1.56125H299.7782v43.29179Z"/><path class="a" d="M78.63544,213.18173a3.40416,3.40416,0,0,0-2.75965-1.38089,3.21756,3.21756,0,0,0-2.257.86334,3.00073,3.00073,0,0,0-.93762,2.32486,3.1722,3.1722,0,0,0,.88455,2.346,2.919,2.919,0,0,0,2.14667.88665,3.45222,3.45222,0,0,0,2.81909-1.36605l1.49973,1.54426a5.65741,5.65741,0,0,1-8.19641.48151,5.54217,5.54217,0,0,1,.02975-7.75514,5.38306,5.38306,0,0,1,3.90723-1.56122,5.534,5.534,0,0,1,4.31876,1.96635l-1.45511,1.6503Zm16.93576,5.6615a5.71118,5.71118,0,0,1-7.82944,0,5.48494,5.48494,0,0,1,0-7.72545,5.71131,5.71131,0,0,1,7.82944,0,5.4848,5.4848,0,0,1,0,7.72545Zm-1.69486-6.24695a2.96591,2.96591,0,0,0-4.42483,0,3.621,3.621,0,0,0,0,4.77695,2.98292,2.98292,0,0,0,4.42483,0,3.62109,3.62109,0,0,0,0-4.77695Zm17.6994,7.69365-4.99542-6.5694v6.5694h-2.33975V209.80687h2.19119l5.144,6.74971v-6.74971h2.33973v10.48306Zm14.46027-8.45941v8.45941h-2.33969v-8.45941h-2.9697v-2.02365h8.27912v2.02365Zm16.28879,4.71123,2.65579,3.74818H142.1l-2.32489-3.34515h-1.6185v3.34515h-2.34183V209.80687H139.79a5.69932,5.69932,0,0,1,3.4873.82306,3.18477,3.18477,0,0,1,1.04358,2.65576,3.08976,3.08976,0,0,1-1.99606,3.25606Zm-.84-4.41a2.87,2.87,0,0,0-1.57391-.316h-1.75424v3.10544h1.70968a2.51332,2.51332,0,0,0,1.63547-.39031,1.58969,1.58969,0,0,0,.43488-1.23663,1.32168,1.32168,0,0,0-.45188-1.16246Zm17.80554,8.1582-.97369-2.26335h-4.39511l-.97574,2.26335h-2.49033l4.53089-10.48306h2.26336l4.53086,10.48306Zm-3.16485-7.36485-1.31943,3.046h2.624l-1.30453-3.046Zm19.71029.25665a3.41,3.41,0,0,0-2.75973-1.38089,3.21426,3.21426,0,0,0-2.257.86334,3.00076,3.00076,0,0,0-.9375,2.32486,3.17237,3.17237,0,0,0,.88446,2.346,2.91447,2.91447,0,0,0,2.14456.88665,3.45215,3.45215,0,0,0,2.81913-1.36605l1.50183,1.54426a5.65984,5.65984,0,0,1-8.19846.48151,5.54214,5.54214,0,0,1,.02966-7.75514,5.38342,5.38342,0,0,1,3.90732-1.56122,5.5383,5.5383,0,0,1,4.32083,1.96635l-1.45511,1.6503Zm12.78025-1.35121v8.45941h-2.33969v-8.45941h-2.97174v-2.02365h8.28118v2.02365Zm9.77878,8.45941V209.80687h2.33981v10.48306Zm17.35577,0-4.99542-6.5694v6.5694h-2.33969V209.80687h2.18914l5.146,6.74971v-6.74971h2.33978v10.48306Zm19.18426-5.3391v3.72059a5.50245,5.50245,0,0,1-4.32092,1.73941,5.33393,5.33393,0,0,1-3.87756-1.52939,5.5448,5.5448,0,0,1,.03183-7.75514,5.31711,5.31711,0,0,1,3.85425-1.56122,5.7089,5.7089,0,0,1,3.92218,1.48485l-1.21561,1.75636a4.62887,4.62887,0,0,0-1.296-.84851,3.4921,3.4921,0,0,0-1.28336-.2312,3.0731,3.0731,0,0,0-2.25061.90574,3.6226,3.6226,0,0,0-.036,4.77062,2.8243,2.8243,0,0,0,2.09153.893,4.0264,4.0264,0,0,0,2.02578-.46454v-2.8806Z"/><rect class="a" x="8.96817" y="138.81429" width="93.7" height="2"/><rect class="a" x="10.66817" y="214.31429" width="52.6" height="2"/><rect class="a" x="245.46817" y="214.31429" width="52.49998" height="2"/><rect class="a" x="200.96817" y="138.81429" width="93.59999" height="2"/><path class="b" d="M186.04249,29.11429a10.67922,10.67922,0,0,0-.3-2.5c-.4-1.6-.8-3.2-1.3-4.7-.7-2.2-1.4-4.4-2.2-6.6a17.25016,17.25016,0,0,0-1.6-3.7c-.6-1-1.19347-2.09993-1.85669-3a33.11939,33.11939,0,0,0-4.4433-4.3c-.1-.1-.2-.1-.3-.2-.9-.6-1.9-1.3-2.8-1.9S168.93577,1.421,168.03578.721c-1.16052-1.01244-2.89328-.90671-2.29329-.00671a10.88018,10.88018,0,0,0,2.1,2.6c.8.7,1.5,1.5,2.3,2.3s1.4,1.5,2.1,2.2a18.52933,18.52933,0,0,1,2.8,2.8c.6.9,1.3,1.8,2,2.7a14.00091,14.00091,0,0,1,1,1.6,25.58963,25.58963,0,0,1,1.7,4.3,12.25971,12.25971,0,0,1,.8,3.3c0,.3.1.6-.1.9a.36994.36994,0,0,1-.3-.1,1.7901,1.7901,0,0,1-.5-.7c-.6-1-1.2-2-1.8-3.1-1.2-2.1-2.4-4.3-3.6-6.4a32.582,32.582,0,0,0-2.4-4,6.998,6.998,0,0,1-.6-.9c-.1.1-.2.2-.2.3a8.16991,8.16991,0,0,0-.1,2.7,19.7487,19.7487,0,0,0,.8,2.6c.6,1.6,1.2,3.2,1.9,4.8a6.37225,6.37225,0,0,1,.2.7c-.3-.1-.4-.2-.6-.2-1.2-.5-2.5-.9-3.7-1.4-1.7-.6-3.3-1.3-5-1.9-1.5-.6-3-1.3-4.6-1.9-1.1-.4-2.3-.8-3.5-1.2-1.7-.6-3.5-1.3-5.2-1.8a53.745,53.745,0,0,1-5.1-2,7.17,7.17,0,0,0-2.5-.7c-.2,0-.5-.1-.8-.1.3,1,.5,1.9,1.4,2.3a.1.1,0,0,1,.1.1h0a29.32,29.32,0,0,0,5,3.4c1.4.8,2.9,1.6,4.3,2.5a20.99853,20.99853,0,0,0,2.6,1.3,28.64042,28.64042,0,0,1,4.7,2.2,36.20847,36.20847,0,0,0,4,1.9,34.922,34.922,0,0,1,3.9,1.9l2.7,1.5a32.11784,32.11784,0,0,1,3,2.1c1.4,1.2,2.9,2.5,4.4,3.6a1.21,1.21,0,0,1,.5.5,11.40986,11.40986,0,0,0,1.1,1.1,2.13,2.13,0,0,1,.7,1.5,4.86975,4.86975,0,0,0,.1,1.2,4.57,4.57,0,0,1-1.1,3.7l-2.1,2.1a11.99924,11.99924,0,0,1-1.2,1.1,27.49916,27.49916,0,0,1-2.8,1.9c-.8.5-1.5,1.2-2.3,1.7a22.10991,22.10991,0,0,1-3.4,1.8c-1.3.6-2.7,1.1-4,1.7a3.67,3.67,0,0,1-2.9.3,2.3,2.3,0,0,1-1.4-.9,17.10115,17.10115,0,0,1-1.1-1.4,4.17009,4.17009,0,0,1-.8-1.8,3.39973,3.39973,0,0,1-.1-1c-.1-.8-.34307-.66715-.44306-1.46715-.1-1.4-.05694-3.83285-.05694-5.23285a45.53277,45.53277,0,0,0-.4-5.3,1.23,1.23,0,0,0-.4-.8.49.49,0,0,0-.3-.1,1.47,1.47,0,0,0-.6.5,5.26029,5.26029,0,0,0-.4,1.7c-.1,1.3-.1,2.7-.1,4.1.01626.30346.00694,2,.00694,2.6,0,2,.21875,4,.21875,6a3.11268,3.11268,0,0,0,.85417,2.3141c.66781.66781.637,1.79119.6875,2.72916a10.42463,10.42463,0,0,1-.41667,2.5c-.48562,1.41093-1.63467,1.29149-2.70754,2.32855a14.83984,14.83984,0,0,0-1.34315,1.12819,6.9,6.9,0,0,1-1.8,1.6,1.93,1.93,0,0,1-1,.3h-1.7c-1.7.1-3.5.1-5.2.2a3.61,3.61,0,0,1-2.5-.6.94.94,0,0,1-.5-.9c.1-1.3.1-2.5.1-3.8v-2.7c.1-1.6.2-3.1.4-4.7.1-1,.2-1.9.3-2.9s.2-2.1.3-3.1.2-2.1.3-3.2a8.59878,8.59878,0,0,0,.1-1.6h-.2c-.1,0-.1,0-.2.1a2.69,2.69,0,0,0-1.5,1.8c-.3,1.3-.6,2.5-.9,3.8a2.76988,2.76988,0,0,0-.1.9c-.2,1.1-.4,2.3-.5,3.4a44.99842,44.99842,0,0,1-.8,5.1,1,1,0,0,1-1.09.901l-.01-.001a3.39973,3.39973,0,0,1-1-.1,15.53952,15.53952,0,0,1-4-1.7c-1-.6-2-1.2-3-1.9-.6-.4-1.2-.8-1.1-1.8v-.06a14.82992,14.82992,0,0,1,.1-4.7,37.18016,37.18016,0,0,1,1.9-6.5,38.59122,38.59122,0,0,0,1.6-4.8c.5-2,1.1-3.9,1.6-5.9l1.2-5.4v-.5l-.2.2a19.22925,19.22925,0,0,0-1.8,3.1,42.48094,42.48094,0,0,0-2.1,4.9,27.73014,27.73014,0,0,1-1,2.6c-.8,1.8-1.5,3.5-2.3,5.2a1.38005,1.38005,0,0,1-.4.3c-.4.1-.6-.1-.8-.4a.59884.59884,0,0,0-.6-.3c-.2,0-.4.3-.5.6v.4c0,.8.1,1.5.1,2.3a32.40065,32.40065,0,0,1-.2,4.4,5.65983,5.65983,0,0,1-.8,2.5,1,1,0,0,1-1.3.5,1.8,1.8,0,0,1-.9-.6,11.40986,11.40986,0,0,1-1.1-1.1,15.92765,15.92765,0,0,1-1.3-1.3,2.75,2.75,0,0,1-.8-1.5,28.25119,28.25119,0,0,1-.2-2.9,26.90959,26.90959,0,0,1,.6-6.3c.2-1.1.6-2.2.9-3.3s.5-2.1.9-3.2c.1-.3.2-.5.3-.8a25.84877,25.84877,0,0,0,.9-4,67.43281,67.43281,0,0,1,1.7-7.5c.5-1.8.9-3.6,1.3-5.4a2.76968,2.76968,0,0,0,.1-.9.76.76,0,0,1-.4.1,4.86994,4.86994,0,0,0-2.2,2.7c-.3.7-.6,1.5-.9,2.2a20.24924,20.24924,0,0,0-1.4,3.4c-.6,1.8-1.2,3.7-1.7,5.5-.3,1-.7,2-1,3-.5,1.8-1.1,3.5-1.6,5.3-.3,1.2-.7,2.3-.9,3.5-.1.6-.1,1.2-.2,1.8a26.20014,26.20014,0,0,0-.1,2.8v1.3a1.38,1.38,0,0,1-.6,1.1.61.61,0,0,1-.8,0,3.34,3.34,0,0,1-1.4-2.4c-.1-.4-.1-.8-.2-1.1a10.47973,10.47973,0,0,1-.1-2.5,31.44888,31.44888,0,0,1,.3-4.4,7.06,7.06,0,0,1,.6-2.4,10.09114,10.09114,0,0,0,.7-1.5c.3-.7.7-1.5,1-2.2l1.5-2.4a4.42011,4.42011,0,0,0,.6-1.6,11.00061,11.00061,0,0,0,.2-1.8v-.8c0-.2-.1-.4-.2-.4a4.33105,4.33105,0,0,1-.5.1.22.22,0,0,0-.2.2,19.49919,19.49919,0,0,0-1.8,2.5c-.1.3-.3.4-.7.3v-1a7.89,7.89,0,0,1,.5-3c.3-.9.5-1.7.8-2.6a11.76069,11.76069,0,0,0,.3-2.1,1.07,1.07,0,0,0-.5.3,7.40991,7.40991,0,0,0-1.2,1.3,21.28062,21.28062,0,0,0-1.8,4.1c-.4,1.2-.8,2.5-1.2,3.8a10.00013,10.00013,0,0,0-.4,2.4,19.19047,19.19047,0,0,1-.3,2.2,2.07009,2.07009,0,0,1-.6,1,5.87,5.87,0,0,0-2,2.9c0,.1-.1.2-.1.3-.5,1.3-1,2.6-1.4,4a9.62,9.62,0,0,0-.2,3.4,13.71038,13.71038,0,0,0,.8,3.5,4.00009,4.00009,0,0,0,1,1.8,9.43194,9.43194,0,0,0,1,1,20.57054,20.57054,0,0,0,3,2.9c.6.4,1.1.8,1.6,1.2a15.921,15.921,0,0,0,2.2,1.3,8.86,8.86,0,0,1,1.7.8,47.66151,47.66151,0,0,0,5.2,2.2,22.67,22.67,0,0,1,5,2.3,16.18143,16.18143,0,0,0,1.8,1l3,1.5c.9.5,1.8,1.1,2.7,1.7a2.33994,2.33994,0,0,1,.7.7,8.87024,8.87024,0,0,0,1.4,2.5c.2.2.1.6-.2.9a.48.48,0,0,1-.67848.02152l-.02152-.02152c-.2-.2-.5-.4-.6-.7a21.16248,21.16248,0,0,0-1.2-2,10.18,10.18,0,0,0-3.3-2.9c-1.6-.9-3.2-1.7-4.8-2.6a12.00012,12.00012,0,0,0-3.3-1.3l-1.2-.3a4.82724,4.82724,0,0,0-2.38656-.33886c-.64991-.04992-.78778.53482-.68778,1.03482a28.12865,28.12865,0,0,0-.01562,2.904,19.37706,19.37706,0,0,0,1.28125,4.08034,17.59421,17.59421,0,0,0,1.77669,3.65169c.6.9,1.13282,2.06719,1.73281,2.96719a9.508,9.508,0,0,0,1.19922,1.60079c1.1.9,2.2,1.9,3.4,2.8a2.19517,2.19517,0,0,0,.4.3,4.13324,4.13324,0,0,0,1.1.4c.7.3,1.19947.172,1.89037.49246a4.96868,4.96868,0,0,1,1.34117.63529c.43152.43152.7698.47171,1.2182.92012.68891.68891-.91425,2.2426-1.213,2.54135-.85779.85778-2.21309,2.08924-3.11109,2.89147a31.28892,31.28892,0,0,1-2.9647,2.25883c-1.14906.82145-1.08959.74276-2.21765,1.59283a2.0791,2.0791,0,0,0-.802,1.7136,10.948,10.948,0,0,1,0,1.65625,3.34176,3.34176,0,0,0,.32812,2.51866,8.3502,8.3502,0,0,0,1.43272,1.93042c.411.42793,1.02752,1.42752,1.44706,1.84706a11.83528,11.83528,0,0,0,2.25625,2.021,8.189,8.189,0,0,0,3.39081,1.14375c.866.059,1.44254.03529,2.30588.03529.23039,0,.8101.08309,1.07624.1233,2.2209.33552,2.56366,1.70819,2.58063,2.47837a33.02032,33.02032,0,0,1-.75,6.2199c-.72283,4-.3404,3.57477-3.5,6.83333-1.626,1.67689-3.62359,3.021-4.709,4.04677a29.91111,29.91111,0,0,1-5.5,3.8,4.27988,4.27988,0,0,0-1.3.9,21.10026,21.10026,0,0,0-1.9,2.3,6.74013,6.74013,0,0,0-1.3,3.4,24.58137,24.58137,0,0,0-.2,2.8c-.1,1.3-.2,2.5-.2,3.8,0,.4.1.9.1,1.3a12.37813,12.37813,0,0,1,1.17567,2.90322,23.46445,23.46445,0,0,0,1.07813,2.19679,12.91988,12.91988,0,0,0,1.92187,3.16,8.34423,8.34423,0,0,0,2.6875,2.22659c3.8379,1.14527,6.53362-1.52288,10.125.25,3.25,2.375,8.4625,5.2,13.0625,6,5.4.9,9.63816-4.551,13.5-3.25.869.07927,1.77084-.66667,3.22917-.16667,1.35417-.45833,5.56747-3.78527,6.66774-5.19884a19.55475,19.55475,0,0,0,2.16558-2.947c.55534-1.50388,2.40546-4.35546,2.20546-5.95546-.02606-.45933-1.15628-6.9625-1.393-7.357a56.44388,56.44388,0,0,0-2.91737-6.04167c-.32575-.43477-1.58263-1.83333-1.58263-1.83333-.11091-.18242-1.502-.97692-1.52275-1.18942-.01353-.53523-.41484-2.15769-.51666-2.68333-.47527-2.45356-1.21549-3.32725-1.01549-5.12725v-1.88654a16.52516,16.52516,0,0,0-.0701-2.676c-.20122-1.96879-.29181-3.562-.45833-5.52405-.1-1.6-.74229-3.3-.84228-4.9l-.3-2.7c-.2-1.4-.3-2.8-.6-4.2-.3-1.7-.58785-2.923-.98786-4.623a6.5366,6.5366,0,0,1-.21215-1.377c.1-.9.2-1.8.3-2.8.1-.6.07035-1.10686.2-1.6a3.50427,3.50427,0,0,1,1.32267-2.38551c1.953-1.953,2.83326-2.098,4.1665-3.63525a20.477,20.477,0,0,0,2.28646-3.0677,13.69158,13.69158,0,0,0,1.06249-2.78125c.30356-.94539.6438-2.05149.82814-2.6875a32.24958,32.24958,0,0,0,.90625-4.39063,20.52315,20.52315,0,0,0-.16179-3.182c-.20886-1.45866-.5726-1.55384-1.24825-1.55384-.64174.14779-.54086-.52069.43749-1.21636,1.90082-1.35162,3.58171-2.21862,5.5-3.4a9.78993,9.78993,0,0,0,3.1-2.6c1.2-1.6,2.4-3.2,3.6-4.9a3.88,3.88,0,0,0,.9-2.3c.1-1.2.2-2.5.2-3.7C186.1425,32.45429,186.04249,30.71429,186.04249,29.11429Z"/></svg>